<svg viewBox="0 0 150 82" fill="none" xmlns="http://www.w3.org/2000/svg" color="rgb(21, 64, 163)">
  <path fill-rule="evenodd" clip-rule="evenodd" d="M67.6 0.15c-10.47.63-21.24 3.94-29.31 8.96-6.38 3.99-12.85 10.27-18.23 17.66-4.55 6.27-8.82 13.43-11.3 18.95C6.18 51.44 4.37 57.05 2.26 65.77c-2.49 10.25-2.79 13.27-1.55 15.11.42.63.65.77 1.32.77h.82l.16-1.99c.14-1.97.35-2.89 3.33-13.6 2.5-9.12 4.43-14.27 7.67-20.62 5.56-10.93 13.89-21.79 21.23-27.61 7.25-5.74 15.91-9.26 26.73-10.9 1.34-.19 4.2-.31 7.86-.31 6.34.02 9.09.3 14 .5 10.07 2.49 16.52 6.26 29.42 17.24 2.55 2.18 7.74 7.16 7.74 7.44 0 .07-.66 0-1.46-.16-2.16-.44-3.26-.39-4.41.21-1.19.63-2.1 2.1-2.1 3.39 0 1.95 1.27 3.38 4.11 4.65.78.33 4.79 2.3 8.92 4.36 8.28 4.15 9.81 4.8 13.45 5.81 4.42 1.24 7.02.89 8.77-1.12 1.55-1.81 1.76-4.25.59-6.64-.35-.68-1.82-2.75-3.3-4.66-3.14-4.06-3.84-5.16-5.11-8.12-1.19-2.8-2.25-6.5-3.57-12.55-2.3-10.6-2.16-10.1-2.82-9.43-.8.8-2 9.28-2 14.11 0 3.39.26 5.48 1.06 8.76.3 1.29.54 2.35.52 2.38-.03.02-.85-.98-1.81-2.29-4.3-5.82-15-15.15-24.54-21.41C99.48 5 92.68 2.35 83.4.85c-5.02-.82-10.16-1.03-15.78-.7Z" fill="currentColor"/>
</svg>