<svg xmlns="http://www.w3.org/2000/svg" width="280" height="280" fill="none"><path fill="#37A75F" d="m240.85 40.823-1.697-.113-.909.038-.838.042c-.549.033-1.089.155-1.63.23a8.76 8.76 0 0 0-1.437.42 18.832 18.832 0 0 0-2.971 1.256 14.745 14.745 0 0 0-3.512 2.569c-.042.038-.067.075-.109.117a.636.636 0 0 0-.607.654 9.068 9.068 0 0 0-1.002 1.4c-.05-.122-.063-.281-.146-.37a1.76 1.76 0 0 0-1.446-.444.337.337 0 0 0-.256.076 11.586 11.586 0 0 0-3.595 4.79 22.683 22.683 0 0 0-1.11 13.22 28.72 28.72 0 0 0 2.275 6.18 11.538 11.538 0 0 0 4.898 5.029 24.671 24.671 0 0 0 12.785 2.912 14.803 14.803 0 0 0 3.407-.566 16.688 16.688 0 0 0 3.155-1.387 17.407 17.407 0 0 0 5.133-4.391 21.91 21.91 0 0 0 4.739-12.307 19.41 19.41 0 0 0-.616-6.67 16.305 16.305 0 0 0-2.958-6.102 16.7 16.7 0 0 0-11.553-6.583Zm8.356 7.589a13.822 13.822 0 0 1 3.138 6.046 142.614 142.614 0 0 0-5.61-8.18 12.773 12.773 0 0 1 2.472 2.134ZM228.61 73.323a11.015 11.015 0 0 1-5.384-7.392 69.614 69.614 0 0 0 6.084 7.228l.725.776c-.473-.197-.98-.373-1.425-.612Zm3.772 1.454a44.171 44.171 0 0 0-1.257-1.626l-.839-.905a60.137 60.137 0 0 1-6.536-7.823 16.997 16.997 0 0 1-1.06-1.857.309.309 0 0 0-.093-.067.785.785 0 0 0-.155-.033 18.247 18.247 0 0 1-.163-3.143c.113.185.222.373.343.55.91 1.32 1.987 2.484 2.888 3.662l2.61 3.821 4.731 6.964s.247.327.57.742c-.356-.084-.7-.184-1.048-.298l.009.013Zm7.571.838a20.551 20.551 0 0 1-4.973-.264c-.486-.892-.939-1.676-.939-1.676l-4.748-6.99-2.66-3.909c-.998-1.312-2.049-2.434-2.934-3.687a5.954 5.954 0 0 1-.905-1.74.255.255 0 0 0-.071-.066 1.193 1.193 0 0 0-.272-.139c.124-.905.315-1.8.57-2.677 1.957 2.933 4.018 5.79 6.101 8.62l3.482 4.734 2.61 3.662 2.217 2.812c.943 1.165 1.726 1.819.641-.369-.612-1.307-1.676-3.063-1.676-3.063l-2.548-3.582-3.545-4.828c-2.329-3.163-4.647-6.327-6.779-9.6.02-.05.029-.104.046-.15.284-.659.635-1.287 1.047-1.873l.767 1.366a126.5 126.5 0 0 0 7.274 10.852l6.759 9.148 2.271 2.774.218.247a10.29 10.29 0 0 1-1.957.419l.004-.021Zm2.615-.582c-.067-.139-.125-.269-.218-.445-.641-1.29-1.726-3.025-1.726-3.025l-6.73-9.118a126.378 126.378 0 0 1-7.328-10.92l-.968-1.722c.174-.205.36-.4.557-.582a.737.737 0 0 0 .092-.206c.036-.231.053-.465.05-.7a16.298 16.298 0 0 0 1.609-1.001l.478.72c2.485 3.847 4.71 7.874 7.044 11.85a161.93 161.93 0 0 0 3.612 5.926c.633.968 1.257 1.936 1.944 2.883l.981 1.357s2.481 2.858 2.434 2.686c.314.31.657.591 1.023.838a13.01 13.01 0 0 1-2.862 1.48l.008-.021Zm6.738-5.171a15.71 15.71 0 0 1-3.662 3.562 6.14 6.14 0 0 0-.65-1.128l-1.856-2.904-.838-1.13a92.683 92.683 0 0 1-1.957-2.888 164.583 164.583 0 0 1-3.654-5.959c-2.363-4.03-4.609-8.141-7.19-12.105l-.474-.717c.69-.403 1.4-.768 2.129-1.094l1.169 1.651a280.764 280.764 0 0 1 6.78 10.187l3.222 5.204 2.384 3.994s2.075 3.113 2.016 2.97c.884 1.22 1.622 1.911.662-.33-.532-1.341-1.446-3.164-1.446-3.164l-2.317-3.893-3.285-5.317a287.968 287.968 0 0 0-6.926-10.417l-.952-1.35c.336-.117.688-.28 1.002-.356a12.561 12.561 0 0 1 1.802-.419c.176-.033.301-.059.419-.075 0 .025-.026.058-.03.08a.194.194 0 0 0 0 .12c.326.74.749 1.434 1.258 2.063 2.011 2.773 3.863 5.782 5.698 8.732l2.686 4.488 2.058 3.578s2.015 3.151 1.965 3.005c.838 1.236 1.58 1.944.666-.319-.507-1.345-1.387-3.188-1.387-3.188l-2.02-3.52-2.744-4.61c-1.886-3.038-3.734-6.05-5.867-8.984a8.882 8.882 0 0 1-1.035-1.676l.419-.063c.23-.031.46-.048.692-.05l1.148-.05c.356 0 .7.096 1.056.13l.285.456 5.028 8.042 2.46 4.043 1.932 3.306s2.015 3.147 1.956 3c.13.202.26.373.382.537a18.542 18.542 0 0 1-2.992 6.579l.008-.021Zm3.227-7.488c-.503-1.341-1.337-3.076-1.337-3.076l-1.906-3.273-2.515-4.131-4.831-7.731a13.87 13.87 0 0 1 2.095.687l.419.524c2.514 3.302 4.857 6.738 7.086 10.253l.565.893.73 1.026a18.686 18.686 0 0 1-.319 4.849l.013-.021Zm.212 86.014a34.53 34.53 0 0 0-.44-.943l-.897-1.517c-1.676-2.791-3.532-5.448-5.422-8.096l-11.531-15.579c-3.814-5.209-7.61-10.476-11.763-15.454a177.452 177.452 0 0 1-12.591-14.545c-.367-.6-.681-1.23-.939-1.885a.267.267 0 0 0-.088-.071.806.806 0 0 0-.805-.08 1.708 1.708 0 0 0-1.257-.36.318.318 0 0 0-.23.063c-.441.276-.861.584-1.257.921a16.394 16.394 0 0 0-2.514 2.766l-.18.23-.089.118-.176.255c-.419.7-.838 1.396-1.223 2.096a49.341 49.341 0 0 0-3.985 18.533c-.151 3.126-.302 6.277-.452 9.453-.193 3.16-.369 6.399-.42 9.638-.061 3.309.069 6.62.39 9.914a31.17 31.17 0 0 0 2.489 10.057 9.955 9.955 0 0 0 3.855 4.387 7.24 7.24 0 0 0 6.193.419 7.65 7.65 0 0 0 4.031-4.655c.588-1.73.961-3.526 1.111-5.347.36-3.52.251-6.977.318-10.4.067-3.424.088-6.893.134-10.367.046-3.474 0-7.073-.104-10.476 0-.838 0-1.676.025-2.48.31.264.419.134.05-.725.038-.616.067-1.232.147-1.827.094-.765.261-1.518.498-2.251l.419-1.064.067.046s.235.172.151.139c0 .054 0-.055.067.104.284.608.46 1.26.52 1.928.186 1.684.241 3.381.163 5.074-.079 3.466-.578 7.044-.72 10.706-.373 7.245-.361 14.537-.419 21.832-.042 3.645-.113 7.295-.281 10.945-.168 3.65-.469 7.371-.524 11.1-.155 7.459.113 14.921.088 22.351-.025 7.429-.645 14.955-.419 22.581.059 3.663-.18 7.505.134 11.423a25.123 25.123 0 0 0 1.098 5.942 11.204 11.204 0 0 0 3.511 5.447 10.855 10.855 0 0 0 6.223 2.158 7.623 7.623 0 0 0 6.26-2.82 13.889 13.889 0 0 0 2.514-5.896c.379-1.984.548-4.002.503-6.021-1.106-15.295-.775-30.468-.658-45.812l.055-5.737v-1.433c-.013-.358 0-.716.038-1.073a4.608 4.608 0 0 1 1.035-1.751 2.508 2.508 0 0 1 1.282-.872c.281.03.36.03.675.671a14.07 14.07 0 0 1 .532 4.994c.033 7.727-.092 15.22-.206 22.896-.037 3.822 0 7.652.143 11.482.142 3.829.159 7.492.146 11.313a48.486 48.486 0 0 0 1.107 11.633 14.422 14.422 0 0 0 2.552 5.77 7.288 7.288 0 0 0 2.849 2.132c1.083.415 2.24.6 3.398.545a10.082 10.082 0 0 0 3.256-.612 6.744 6.744 0 0 0 2.896-2.065 12.558 12.558 0 0 0 2.43-5.867c.537-3.829.619-7.708.243-11.557-.339-3.721-.327-7.307-.419-11.054-.092-3.746-.138-7.391-.205-11.075-.26-14.716-.419-29.248-.344-43.528.042-7.14.159-14.216.352-21.228.033-1.023.067-2.032.105-3.055.419.293.532.189.021-.696l.226-6.704c.063-1.756.176-3.453.189-5.246 0-1.718.033-3.411.125-5.087.05-.838.109-1.676.206-2.464l.071-.562v.03c.046.184.088.377.117.578l.189 1.198.272 2.443a97.8 97.8 0 0 1 .302 4.97c.276 6.65.042 13.254.067 19.841a58.945 58.945 0 0 0 .658 9.985 31.15 31.15 0 0 0 1.257 4.987 8.199 8.199 0 0 0 3.83 4.362 7.121 7.121 0 0 0 5.866.172 9.486 9.486 0 0 0 4.304-3.528 19.654 19.654 0 0 0 2.543-9.713c.101-1.882.071-3.721.021-5.532.503.612.733.587.088-1.114-.034-.105-.084-.227-.126-.336-.021-.758-.046-1.533-.058-2.271-.101-3.025-.201-6.022-.302-8.992l-.641-17.566a45.674 45.674 0 0 0-1.471-8.648 21.788 21.788 0 0 0-3.805-7.962 31.939 31.939 0 0 0-13.409-9.797 40.342 40.342 0 0 0-7.664-2.242 72.551 72.551 0 0 0-7.597-.838 62.653 62.653 0 0 0-14.632.298c-1.182.201-2.364.419-3.499.712l-1.705.453-.868.26-.193.062-.368.122-.642.218-1.206.419s-2.095.913-4.01 2.011a23.43 23.43 0 0 0-3.537 2.288 6.742 6.742 0 0 0-2.451 2.761c0 .42.67.055 2.472-.838l.968 1.463c6.663 9.792 14.792 18.37 21.454 27.991l16.816 23.7s2.346 2.933 2.279 2.778c.122.139.243.268.357.39v.465c-.005.935.004 1.823-.009 2.695Zm0 30.915-.938-1.127a126.44 126.44 0 0 0-4.534-5.028c-3.097-3.273-6.311-6.415-9.45-9.617-6.264-6.327-11.179-13.958-17.62-20.373-.368-.373-.754-.733-1.135-1.094 0-1.139.046-2.267.063-3.406 5.598 6.335 10.475 13.341 16.208 19.694l14.527 15.626s2.712 2.589 2.628 2.459l.226.189.025 2.677Zm-32.638-66.86c3.6 4.962 7.065 10.057 10.815 14.943l19.766 26.616s1.366 1.635 2.007 2.376c0 1.467-.021 2.934-.025 4.404l-1.278-1.713-1.006-1.22c-1.437-1.793-2.787-3.666-4.098-5.569-2.632-3.805-5.125-7.739-7.991-11.452-5.816-7.224-11.1-14.863-17.159-21.974l-1.035-1.19c.121-1.738.126-3.482.012-5.221h-.008Zm0 7.283c5.892 6.91 11.113 14.427 16.828 21.559 2.795 3.562 5.251 7.4 7.836 11.175 1.295 1.89 2.619 3.772 4.044 5.578l1.428 1.76 1.325 1.332c.419.419.838.784 1.077 1.002 0 .947-.021 1.885 0 2.832-.512-.767-.956-1.408-.956-1.408l-14.037-17.063c-5.787-7.027-11.503-14.104-16.887-21.433l-1.069-1.466c.072-.926.126-1.848.214-2.795.025-.419.05-.817.08-1.228l.117.155Zm16.208 27.266 14.214 17.268s1.412 1.555 2.095 2.276v3.423l-.859-1.152a237.956 237.956 0 0 0-4.337-5.548c-2.934-3.658-5.972-7.237-9.014-10.799-6.08-7.123-12.231-14.175-17.867-21.621l-1.211-1.618c.05-1.19.105-2.393.18-3.578l.151.213c5.355 7.233 10.987 14.218 16.677 21.136h-.029Zm-16.82-15.345c5.578 7.371 11.637 14.327 17.599 21.32 2.992 3.499 5.963 7.007 8.85 10.577a247.348 247.348 0 0 1 4.262 5.409l1.349 1.802 1.085 1.303c0 1.136.025 2.284.034 3.42-.788-1.081-1.735-2.255-1.735-2.255l-14.352-15.433c-5.803-6.373-10.752-13.517-16.526-20.054l-.93-1.027c.033-1.676.037-3.402.096-5.087v-.297l.268.322Zm-12.491 24.455a4.154 4.154 0 0 1-3.352-1.349 14.225 14.225 0 0 1-2.933-6.613c1.42 1.928 2.933 3.772 4.383 5.611l.645.838 1.19 1.4.096.117-.029-.004Zm2.862-1.764a3.35 3.35 0 0 1-1.735 1.542c-.578-1.027-1.207-1.974-1.207-1.974l-.762-.98c-1.71-2.175-3.482-4.266-5.029-6.483-.314-.448-.607-.909-.901-1.37a60.968 60.968 0 0 1-.498-5.728c2.015 3.352 4.224 6.579 6.331 9.83l.575.889 2.095 2.895c.892 1.203 1.638 1.907.657-.335-.548-1.341-1.537-3.135-1.537-3.135l-.675-1.043c-2.225-3.428-4.542-6.771-6.591-10.254l-.956-1.676c0-1.03 0-2.07.025-3.105a204.391 204.391 0 0 1 4.262 5.959l4.324 6.231s2.372 2.933 2.305 2.77c.246.272.509.528.788.767-.14 1.81-.63 3.576-1.442 5.2h-.029Zm1.777-9.219a57.196 57.196 0 0 1-.235 3.273c-.075-.143-.142-.273-.247-.453a80.152 80.152 0 0 0-1.743-2.996l-4.333-6.248c-1.584-2.292-3.189-4.58-4.869-6.817l-.52-.675c.056-1.64.13-3.278.222-4.915l.285.381a94.962 94.962 0 0 1 4.609 6.935l2.138 3.587 1.743 3.055s2.028 3.151 1.973 3a4.6 4.6 0 0 0 .977 1.123c.037.264.033.52.029.767l-.029-.017Zm0-1.341a8.426 8.426 0 0 0-.319-.838c-.515-1.341-1.395-3.185-1.395-3.185l-1.731-3.029-2.183-3.683c-1.492-2.439-3.059-4.836-4.756-7.153l-1.257-1.651c.063-1.148.117-2.292.168-3.44l.121.213a213.82 213.82 0 0 0 4.01 6.458l3.88 5.925s2.246 2.996 2.184 2.849c.951 1.169 1.73 1.814.641-.364-.616-1.304-1.622-3.076-1.622-3.076l-.679-1.031c-2.514-3.771-4.969-7.543-7.266-11.444l-1.106-1.91-.059-.038c0-.243.026-.495.03-.738.046-.838.109-1.676.159-2.514 1.521 2.623 3.122 5.192 4.752 7.731l4.609 7.199s1.509 2.137 1.957 2.741c.004 3.675-.046 7.366-.092 10.995l-.046-.017Zm.163-12.81c-.419-.812-.758-1.487-.758-1.487l-4.61-7.224c-1.726-2.69-3.427-5.393-5.028-8.154l-.779-1.392c.075-.926.188-1.835.297-2.748a76.4 76.4 0 0 0 4.492 6.608l2.397 3.23 1.973 2.77 2.096 2.766c.016 1.91-.013 3.763-.034 5.648l-.046-.017Zm-9.638-26.75c.344.674.725 1.328 1.123 1.965 1.773 2.858 3.839 5.447 5.787 8.1l.62.838 2.07 2.602c.034 1.995.113 3.947.126 5.866-.457-.88-.893-1.63-.893-1.63l-1.977-2.778-2.439-3.293a75.374 75.374 0 0 1-4.559-6.705c-.277-.482-.532-.968-.788-1.454a39.006 39.006 0 0 1 1.991-7.961c0-.038.037-.067.054-.105.331.419.679.754.981 1.081 2.43 2.971 4.81 6.336 7.052 9.596l.586.875.227.298c-.113.687-.231 1.379-.281 2.049-.059.838-.08 1.651-.088 2.464a30.924 30.924 0 0 0-.88-1.509l-.733-1.005c-1.966-2.669-4.015-5.251-5.724-8.012a29.957 29.957 0 0 1-1.073-1.882.459.459 0 0 0-.096-.067c-.838-.347-1.077.235-1.098.595a.115.115 0 0 0 .014.051.106.106 0 0 0 .036.037l-.038-.016Zm12.756 1.76a3.265 3.265 0 0 0-1.723 1.81c-.268.578-.381.951-.553 1.395-.058.176-.092.348-.142.52l-.092-.134c-2.309-3.353-4.551-6.558-7.195-9.78a6.74 6.74 0 0 1-1.257-1.48c.35-.8.744-1.581 1.181-2.338l.147-.222.021-.025.038-.046.147-.189c.096-.134.188-.222.284-.347l.273.347c2.979 3.596 6.147 6.948 9.093 10.476-.042.029-.113.004-.185.029l-.037-.016Zm2.153.213c-3.23-3.972-6.784-7.676-10.002-11.552l-.419-.545c.323-.335.633-.624.889-.859.305-.266.632-.507.976-.72a.63.63 0 0 0 .1-.21c.109.2.193.419.306.616a163.63 163.63 0 0 0 12.508 14.473c4.061 4.844 7.786 9.977 11.536 15.085l11.339 15.311c1.869 2.561 3.675 5.154 5.347 7.828l1.387 2.304 1.676 2.586c0 1.383 0 2.782-.021 4.169-.452-.746-.838-1.353-.838-1.353l-19.468-26.244c-4.19-5.41-7.991-11.113-12.068-16.657-.193-.28-.419-.54-.616-.817a1.681 1.681 0 0 0 0-.142 6.536 6.536 0 0 0-.67-1.676 3.423 3.423 0 0 0-.772-.914 2.593 2.593 0 0 0-.364-.297 3.452 3.452 0 0 0-.495-.306c-.088-.013-.201-.017-.293-.08h-.038Zm12.001 109.585-3.57-4.098a253.824 253.824 0 0 1-6.863-8.427l-.633-.838c.046-1.215.092-2.426.13-3.646a53.658 53.658 0 0 0 5.384 7.635c1.086 1.307 2.2 2.577 3.323 3.834l2.703 2.988s.964.951 1.714 1.676c.037 1.127.058 2.254.104 3.386l-2.292-2.51Zm2.36 4.479c.079 1.421.175 2.787.251 4.132-.101-.139-.197-.281-.339-.461-.839-1.161-2.23-2.674-2.23-2.674l-2.355-2.292-2.744-2.753a47.588 47.588 0 0 1-4.957-5.866 21.147 21.147 0 0 1-1.128-1.827.362.362 0 0 0-.096-.063c.029-1.312.054-2.627.101-3.943a257.44 257.44 0 0 0 6.436 7.903l3.528 4.056 2.829 3.126.704.662Zm-10.522-48.364c.917 1.198 1.764 2.468 2.598 3.771l2.535 3.889c.419.641.897 1.257 1.37 1.902l.515.658.419.507a20.512 20.512 0 0 0 2.737 2.422c0 1.391-.021 2.782-.034 4.19a102.416 102.416 0 0 0-1.479-2.548l-2.095-3.029c-.897-1.257-1.81-2.552-2.757-3.805-.947-1.253-1.94-2.464-2.934-3.675-.993-1.211-2.22-2.271-3.222-3.402-.142-.159-.239-.331-.373-.491 0-1.185.055-2.367.092-3.545.897 1.103 1.848 2.112 2.665 3.173l-.037-.017Zm-2.565-5.422c.025-.528.034-1.065.067-1.593.034-.528.038-1.148.072-1.722l.733.838c2.049 2.439 3.972 4.995 5.866 7.593l5.029 7.086 1.039 1.257c0 1.311-.021 2.627-.034 3.943-.838-.96-1.626-2.028-1.626-2.028-.293-.34-.515-.604-.838-1.031a36.229 36.229 0 0 1-1.361-1.865c-.88-1.278-1.714-2.598-2.565-3.918-.85-1.32-1.726-2.644-2.699-3.913-.972-1.27-2.095-2.41-3.004-3.612a11.846 11.846 0 0 1-.641-1.019l-.038-.016Zm2.347 10.475c.964 1.157 1.948 2.343 2.853 3.549a157.129 157.129 0 0 1 2.691 3.696l2.153 3.08s2.351 2.933 2.297 2.778c.121.134.243.26.356.377 0 1.258-.021 2.515-.029 3.772-.771-1.216-1.983-2.85-1.983-2.85l-5.078-6.076a171.625 171.625 0 0 1-5.368-6.901l-.448-.624v-3.503c.909.951 1.81 1.818 2.593 2.723l-.037-.021Zm10.321 23.923c-.101-.185-.227-.419-.39-.671-.738-1.257-1.928-2.899-1.928-2.899l-4.915-5.867c-1.793-2.158-3.553-4.337-5.213-6.583l-.385-.536c-.021-1.437-.029-2.871-.046-4.299a193.06 193.06 0 0 0 4.68 6.017l5.075 6.076s2.598 2.702 2.514 2.564c.214.206.419.377.591.524.033 1.898.05 3.796.054 5.699l-.037-.025Zm-.369 11.607-2.636-2.933a128.26 128.26 0 0 1-3.352-3.856 50.366 50.366 0 0 1-5.808-8.284c-.243-.452-.448-.917-.658-1.378.025-1.232.055-2.464.055-3.692l8.284 10.547s2.489 2.807 2.418 2.669c1.051 1.081 1.881 1.676.611-.419-.72-1.257-1.864-2.933-1.864-2.933l-.763-.968-8.053-10.258-.642-.838c0-1.215 0-2.43-.025-3.641a167.669 167.669 0 0 0 4.455 5.627l4.894 5.867s2.514 2.744 2.455 2.61a6.58 6.58 0 0 0 1.002.884c0 3.895.062 7.79.188 11.687-.276-.36-.524-.67-.524-.67l-.037-.021Zm.511-34.604-4.919-6.93c-1.915-2.653-3.881-5.28-5.997-7.799l-1.458-1.676a.285.285 0 0 0-.109-.042h-.113c.067-1.282.117-2.556.163-3.834.248.231.478.461.742.688a32.832 32.832 0 0 1 5.196 6.109l2.259 3.407 1.898 2.912s2.329 2.975 2.279 2.816l.097.096c.029 1.429.012 2.85 0 4.274l-.038-.021Zm-5.259 59.921a7.831 7.831 0 0 1-4.425-1.391 8.25 8.25 0 0 1-2.56-4.027 19.871 19.871 0 0 1-.717-3.243c.214.138.419.288.616.448a55.108 55.108 0 0 1 5.326 5.217l.721.776s1.488 1.399 2.242 2.074a5.594 5.594 0 0 1-1.165.172l-.038-.026Zm2.066-.419-2.016-2.568-.838-.901a56.593 56.593 0 0 0-5.447-5.36 8.732 8.732 0 0 0-1.647-1.051 46.039 46.039 0 0 1-.146-2.514c.418.225.82.48 1.202.762a46.16 46.16 0 0 1 7.073 7.668l.667.838s1.605 1.727 2.241 2.36c-.305.314-.66.576-1.051.775l-.038-.009Zm1.643-1.399-1.677-2.435-.771-.959a47.237 47.237 0 0 0-7.316-7.907 9.286 9.286 0 0 0-2.032-1.207v-2.54c.109.076.222.139.327.21a63.68 63.68 0 0 1 8.686 9.248l.713.8s.67.671 1.382 1.283c.433.398.891.769 1.371 1.11l.419.285a8.817 8.817 0 0 1-1.065 2.12l-.037-.008Zm1.81-4.668a16.248 16.248 0 0 1-.507 1.877l-.109-.121c-.935-1.069-2.179-2.64-2.179-2.64l-.813-.91a64.511 64.511 0 0 0-8.888-9.44c-.36-.252-.741-.478-1.114-.721 0-1.194.037-2.384 0-3.608v-.31l.259.277 9.039 9.063.75.75s2.795 2.489 2.707 2.359c.35.314.74.579 1.161.788-.029.887-.118 1.77-.269 2.644l-.037-.008Zm-.302-3.926c-.867-1.153-2.204-2.691-2.204-2.691l-.872-.875-9.004-9.039c-.431-.438-.84-.898-1.224-1.378v-2.557c.059.084.105.176.159.26a48.987 48.987 0 0 0 5.028 5.95l2.724 2.737 2.376 2.309s2.82 2.451 2.724 2.325c.294.251.605.482.93.692a36.02 36.02 0 0 1 .025 3.151 9.06 9.06 0 0 0-.633-.876l-.029-.008Zm.779-57.407a5.428 5.428 0 0 0-.657 1.923c0 .159 0 .226-.021.323l-1.195-2.116-1.873-2.867-2.313-3.503a34.196 34.196 0 0 0-5.506-6.478 34.332 34.332 0 0 1-1.529-1.429c.021-.72.075-1.441.092-2.158.021-1.16.025-2.3.042-3.457.419.419.804.771 1.182 1.132a67.19 67.19 0 0 1 6.406 7.287l5.448 7.001s1.144 1.224 1.885 1.995a8.177 8.177 0 0 0-1.923 2.363l-.038-.016Zm8.955 35.617c-.021-1.152 0-2.317 0-3.478.298.239.603.457.897.7a45.854 45.854 0 0 1 5.12 5.418l4.471 5.477s.642.662 1.308 1.341c.218.217.419.419.628.607 0 .838.038 1.71.105 2.602 0 .256.029.499.046.75-.863-.867-1.76-1.705-1.76-1.705l-.947-.784a87.386 87.386 0 0 1-8.38-7.831l-1.429-1.618c.012-.465-.009-.968-.021-1.458l-.038-.021Zm.164-24.961a126.658 126.658 0 0 0 4.471 4.906l4.722 4.865s2.619 2.389 2.661 2.38l.05 2.896c-.75-.838-1.483-1.567-1.483-1.567l-.918-.838a101.264 101.264 0 0 1-8.23-7.991c-.419-.499-.867-1.002-1.282-1.513v-1.362l.009-1.776Zm10.261 8.967-.858-.884c-3.005-3.084-6.018-6.152-8.8-9.399l-.616-.754v-1.911c0-.788.038-1.601.038-2.431a89.954 89.954 0 0 0 4.429 4.828l2.933 2.933 2.514 2.405s1.06.884 1.873 1.546c.021 1.362.021 2.699.042 4.061l.025 1.546a42.989 42.989 0 0 0-1.542-1.919l-.038-.021Zm-9.981-3.407a102.12 102.12 0 0 0 8.339 8.096l.792.704s1.781 1.408 2.514 1.965l.101 5.619a92.687 92.687 0 0 0-.838-1.001l-.889-.864a69.297 69.297 0 0 1-8.431-8.883 17.249 17.249 0 0 1-1.127-1.806.281.281 0 0 0-.096-.063.834.834 0 0 0-.708 0c.021-1.37.033-2.74.05-4.115.122.122.201.247.331.386l-.038-.038Zm.482 6.411a70.124 70.124 0 0 0 8.645 9.093l.758.733 1.94 1.727c.025 1.395.051 2.782.072 4.19-.839-1.161-2.054-2.623-2.054-2.623l-.838-.893-7.848-8.238-1.513-1.592c0-1.257 0-2.514.038-3.746.251.457.528.926.838 1.37l-.038-.021Zm-.331 4.899 7.849 8.238.733.767s2.74 2.547 2.652 2.413c.168.147.327.273.482.39 0 1.077.038 2.137.055 3.214 0 .511.021 1.014.029 1.521l-.771-1.06-.788-.943a84.639 84.639 0 0 0-9.059-10.241c-.574-.474-1.148-.947-1.764-1.37v-3.533l.582.604Zm3.918 39.853a5.603 5.603 0 0 1-2.393-2.979c.7.641 1.417 1.257 2.158 1.823l.838.645 1.567.977a4.672 4.672 0 0 1-2.141-.445l-.029-.021Zm4.412.139c-.25.071-.505.128-.762.171l-2.095-1.793-.972-.729a26.145 26.145 0 0 1-2.934-2.569 6.754 6.754 0 0 1-.997-1.349 40.6 40.6 0 0 1-.482-2.732c-.063-.448-.092-.905-.138-1.358l.218.16c1.973 1.546 3.83 3.268 5.682 5.028l.775.729s2.904 2.384 2.824 2.242c.316.232.65.439.998.62a3.896 3.896 0 0 1-2.079 1.601l-.038-.021Zm2.875-2.996c-.152.38-.334.747-.545 1.097a8.824 8.824 0 0 0-.695-.838 104.534 104.534 0 0 0-2.313-2.577l-.901-.838c-1.857-1.743-3.734-3.494-5.77-5.087-.39-.306-.792-.595-1.195-.884a64.327 64.327 0 0 1-.104-3.39c2.451 2.607 5.07 4.957 7.676 7.329l.788.708s2.933 2.334 2.828 2.208c.269.206.524.378.738.516a13.317 13.317 0 0 1-.469 1.777l-.038-.021Zm.67-2.339a16.06 16.06 0 0 0-.368-.456c-.922-1.115-2.343-2.573-2.343-2.573l-.917-.838c-2.716-2.468-5.477-4.932-7.937-7.589-.213-.239-.419-.498-.641-.75v-2.845l.197.23a85.737 85.737 0 0 0 7.903 7.723l.813.692s3.054 2.208 2.962 2.07c.273.167.524.31.742.419a23.969 23.969 0 0 1-.377 3.938l-.034-.021Zm.16-4.881-2.46-2.422-.935-.792a84.346 84.346 0 0 1-7.777-7.606l-1.219-1.416c0-.419 0-.813-.021-1.215.092.096.176.205.268.302a77.104 77.104 0 0 0 6.235 5.711l.813.683s3.026 2.217 2.933 2.095c1.257.838 2.184 1.232.508-.54-.968-1.069-2.443-2.468-2.443-2.468l-.943-.792a75.728 75.728 0 0 1-6.122-5.607c-.442-.469-.861-.95-1.257-1.441-.026-.876-.047-1.731-.076-2.603l.381.419a88.595 88.595 0 0 0 8.532 7.962l.838.679s2.242 1.609 2.812 1.982c.088 1.236.184 2.472.23 3.691a59.11 59.11 0 0 1 .021 3.671c-.092-.08-.163-.159-.281-.276l-.037-.017Zm12.399-71.273a4.453 4.453 0 0 1-2.724-2.267 9.281 9.281 0 0 1-.67-1.781c.377.503.746 1.014 1.135 1.501l.683.838s.976.993 1.722 1.743c-.008-.004-.062.021-.1-.013l-.046-.021Zm6.017-3.591a6.184 6.184 0 0 1-4.656 3.667 76.447 76.447 0 0 0-1.81-2.515l-.779-.938a24.636 24.636 0 0 1-2.908-4.316c-.197-1.282-.373-2.573-.461-3.901a56.475 56.475 0 0 0 3.935 5.514l.682.838 1.316 1.337c.412.418.845.814 1.299 1.186 1.186.964 2.066 1.403.562-.482l-2.049-2.77-.78-.939a51.355 51.355 0 0 1-4.701-6.729c-.13-.239-.235-.482-.361-.725a122.72 122.72 0 0 1-.05-4.262 50.821 50.821 0 0 0 6.583 8.381l.712.784 2.544 2.514c1.052 1.039 1.902 1.642.595-.419a34.631 34.631 0 0 0-2.041-2.837l-.838-.914a44.502 44.502 0 0 1-6.939-9.042 11.277 11.277 0 0 1-.603-1.534c.022-1.358.033-2.717.033-4.077a73.75 73.75 0 0 0 4.295 6.227l2.707 3.528 2.188 2.933 2.216 2.791c.202.265.417.52.645.763a17.97 17.97 0 0 1-1.298 5.958l-.038-.021Zm1.487-8.741c0 .595-.042 1.19-.075 1.789l-.067-.159c-.603-1.316-1.676-3.067-1.676-3.067l-2.171-2.933-2.753-3.583a65.504 65.504 0 0 1-5.028-7.392 13.925 13.925 0 0 1-.419-.838c0-1.345-.034-2.702-.055-4.056.805 1.224 1.74 2.309 2.515 3.428l2.614 3.855 4.744 6.989s2.283 2.967 2.22 2.825l.147.167c.021 1.035.051 2.028.042 2.996l-.038-.021Zm-.062-4.479c-.566-1.065-1.161-2.095-1.161-2.095l-4.752-7.006-2.661-3.918c-.917-1.354-1.978-2.515-2.757-3.797a6.391 6.391 0 0 1-.838-1.818.415.415 0 0 0-.075-.076v-1.219a102.321 102.321 0 0 0-.298-4.878l7.714 12.311a251.43 251.43 0 0 1 4.279 7.208l.448.796c.05 1.521.101 3.021.138 4.513l-.037-.021Zm-7.803-46.663a24.873 24.873 0 0 1 2.632 3.025 15.706 15.706 0 0 1 1.848 3.453 34.371 34.371 0 0 1 1.877 7.333l-.419-.867-2.003-3.596-2.602-4.869a73.06 73.06 0 0 0-4.148-6.876 27.956 27.956 0 0 1 2.853 2.418l-.038-.021Zm-6.39-4.706.134.084c.172.197.361.385.524.59a55.287 55.287 0 0 1 5.799 8.989l2.556 4.781 2.071 3.729s1.47 2.129 1.952 2.753c.193 1.995.281 4.036.352 6.148l-.922-1.425-.88-1.182a105.41 105.41 0 0 1-2.686-3.834c-1.743-2.594-3.39-5.259-5.028-7.936a180.822 180.822 0 0 0-10.057-15.287 36.286 36.286 0 0 1 6.223 2.611l-.038-.02Zm-8.38-3.21.766.951a169.668 169.668 0 0 1 10.183 15.383c1.613 2.636 3.243 5.271 4.965 7.857a75.99 75.99 0 0 0 2.653 3.83l1.114 1.508s1.492 1.676 2.146 2.376l.218 6.286-.319-.583-11.129-17.218-6.864-10.601c-2.363-3.524-4.986-6.822-7.295-10.296-.05-.08-.097-.159-.151-.239 1.263.19 2.514.447 3.75.767l-.037-.02Zm-6.428-1.077c.335.026.67.093 1.005.126.248.42.495.796.75 1.19 2.313 3.478 4.886 6.705 7.187 10.124l6.742 10.413 11.272 17.427s.951 1.299 1.592 2.15l.239 6.956a240.826 240.826 0 0 0-3.046-5.184l-9.073-14.494c-.192-.302-.368-.608-.561-.913a20.915 20.915 0 0 0-.729-3.432 10.836 10.836 0 0 0-.955-1.957c-.147-.394-.382-.444-.6-.553-.217-.109-.389-.289-.708-.268a2.385 2.385 0 0 0-.838-.034c-4.379-7.32-8.636-14.733-13.736-21.668l1.459.117Zm-3.177-.255c.176.272.361.54.549.792 5.062 6.85 9.332 14.301 13.749 21.668-.3.317-.549.679-.738 1.072l-.419 1.073-.251 1.257a7.83 7.83 0 0 0-.139.817 12.128 12.128 0 0 0-.28-.532c-.666-1.257-1.676-3.025-1.676-3.025l-2.854-4.341-4.048-6.378a210.373 210.373 0 0 0-8.498-12.529c-.029-.046-.05-.088-.079-.13 1.575.071 3.142.164 4.722.277l-.038-.021Zm-6.256-.243c.172.313.363.615.57.905 2.933 4.018 5.695 8.054 8.326 12.257l3.981 6.285 2.979 4.542s2.313 2.971 2.263 2.812c.258.3.539.58.838.838v.13c-.086.913-.152 1.82-.197 2.719 0 .419-.025.801-.038 1.203-.419-.763-.808-1.395-.808-1.395l-3.675-5.54c-1.869-2.883-3.721-5.787-5.665-8.64-1.945-2.854-4.006-5.653-6.219-8.297-2.212-2.644-4.894-4.886-6.729-7.622a52.77 52.77 0 0 1 4.404-.176l-.03-.021Zm-5.866.297c.105.18.176.39.293.562a91.932 91.932 0 0 0 6.742 7.655c2.167 2.578 4.157 5.272 6.064 8.05 1.906 2.778 3.721 5.623 5.56 8.464l2.791 4.249 1.094 1.609s1.324 1.676 1.952 2.435v2.489l-.067 1.634-.507-.779-.934-1.257a119.605 119.605 0 0 1-3.604-5.117l-6.864-10.534c-2.296-3.516-4.68-6.998-7.299-10.312-2.514-3.176-5.64-5.657-7.873-8.745.913-.13 1.801-.281 2.702-.382l-.05-.02Zm-6.704 1.358a44.939 44.939 0 0 1 2.589-.641c2.389 3.495 5.682 6.03 8.15 9.11 2.544 3.21 4.878 6.583 7.124 10.027l6.755 10.371a154.701 154.701 0 0 0 3.544 5.099l1.287 1.718s.888.998 1.596 1.777l-.079 1.995c-.021.498-.026 1.014-.042 1.517l-.147-.197a179.495 179.495 0 0 1-4.123-5.959c-2.682-4.035-5.28-8.142-8.087-12.127a117.044 117.044 0 0 0-9.152-11.41c-3.252-3.612-6.6-7.123-9.516-10.928l-.193-.264.294-.088Zm-3.21 1.102 1.144-.419.444-.15.465.636c2.933 3.83 6.239 7.3 9.428 10.832a115.424 115.424 0 0 1 8.93 11.066c2.753 3.872 5.304 7.899 7.961 11.88 1.324 1.99 2.657 3.981 4.061 5.925l1.366 1.865.297.343c-.067 1.999-.101 4.023-.159 6.034l-14.31-21.467a305.237 305.237 0 0 0-19.359-25.942l-.453-.532.185-.071Zm-1.576.515.813.952a302.713 302.713 0 0 1 18.97 25.376l14.569 21.848 1.09 1.416c-.038 1.463-.084 2.934-.118 4.388a11.82 11.82 0 0 0-.268-.549c-.637-1.287-1.63-3.059-1.63-3.059l-.909-1.404-4.417-7.044c-2.933-4.726-5.803-9.478-8.887-14.113-3.084-4.634-6.537-9.021-9.927-13.409-3.39-4.387-6.751-8.854-10.254-13.132a9.38 9.38 0 0 1-.524-.742c.587-.184 1.102-.36 1.538-.507l-.046-.02Zm33.723 55.14-16.547-23.314c-6.805-9.927-15.085-18.639-21.789-28.494l-.839-1.282a44.473 44.473 0 0 1 2.691-1.086c.226.383.477.751.75 1.102 3.469 4.24 6.704 8.603 10.056 12.898 3.353 4.295 6.772 8.552 9.739 13.107 3.034 4.517 5.866 9.173 8.736 13.828l4.342 6.956 1.345 2.095s2.258 3.009 2.204 2.854c.27.33.567.637.888.917-.021 1.014-.067 2.007-.084 3.017a44.8 44.8 0 0 0-1.445-2.577l-.047-.021Zm1.501 42.972c-.465-.52-.838-.901-.838-.901l-2.477-2.372-2.954-2.933c-1.94-1.974-3.826-4.006-5.569-6.135a15.452 15.452 0 0 0-.23-1.588 5.32 5.32 0 0 0-1.987-3.473 3.805 3.805 0 0 0-2.426-.6 4.154 4.154 0 0 0-1.734.654l-1.463-2.145-5.447-6.99a68.721 68.721 0 0 0-6.663-7.588 11.063 11.063 0 0 1-1.454-1.417.314.314 0 0 0-.075 0 2.061 2.061 0 0 1-.532-.042c.021-1.676.046-3.331.063-4.986l.217.209c6.21 6.169 11.063 13.648 17.298 20.038l9.286 9.433a135.01 135.01 0 0 1 4.441 4.865l1.412 1.676 1.069 1.169c.088 1.047.096 2.095.109 3.147l-.046-.021ZM25.408 59.294a22.17 22.17 0 0 0 1.45 6.134 14.846 14.846 0 0 0 3.352 5.615 16.208 16.208 0 0 0 5.867 3.214c.885.28 1.785.513 2.694.7.273.23.42.318.365.092.523.105 1.055.15 1.583.222.054.073.113.141.176.205.528.625.94.947.39-.138.474.055.935.15 1.408.172 2.289.192 4.59-.175 6.705-1.069a18.018 18.018 0 0 0 9.218-9.57 22.344 22.344 0 0 0 1.676-7.224c.482.624.838.938.31-.26a35.961 35.961 0 0 0-.289-.637c.057-1.6-.083-3.2-.419-4.764a16.342 16.342 0 0 0-6.754-9.977 15.668 15.668 0 0 0-7.543-2.578l-.109-.18-.059-.033c-.326-.113-.473 0-.54.172a17.176 17.176 0 0 0-2.233.033 18.14 18.14 0 0 0-8.582 3.315l-.721.565-.247-.368-.059-.03c-.49-.146-.578.21-.574.42v.05l.29.419c-.454.44-.874.911-1.258 1.412-.524.687-.758 1.177.285.301l.964-.808.419-.293c2.967 4.487 5.552 9.218 8.3 13.878 1.38 2.33 2.792 4.642 4.313 6.889a83.46 83.46 0 0 0 2.375 3.31l.81 1.022s1.445 1.559 1.407 1.471c.616.587 1.09.884.331-.251l-1.093-1.61-.562-.712a67.637 67.637 0 0 1-2.413-3.314c-1.547-2.255-2.984-4.61-4.38-6.948-2.798-4.722-5.426-9.562-8.472-14.167l-.034-.046.034-.03.105-.088c.263-.23.543-.44.838-.628.548-.39 1.124-.74 1.722-1.048a.514.514 0 0 0-.084.306.07.07 0 0 0 0 .05l.72 1.019A264.744 264.744 0 0 1 45.2 55.66l3.825 6.232 2.476 4.215s1.161 1.76 1.128 1.676c.498.687.913 1.077.372-.184a29.408 29.408 0 0 0-.804-1.785l-2.338-3.981-3.893-6.365a283.765 283.765 0 0 0-8.26-12.412l-.724-1.018-.059-.034a.608.608 0 0 0-.255 0 17.187 17.187 0 0 1 4.383-1.58 17.558 17.558 0 0 1 4.09-.25l.33.531 6.265 10.028 3.038 5.062 2.003 3.528 1.085 1.701c.474.704.88 1.106.377-.172-.272-.766-.762-1.806-.762-1.806l-1.903-3.352-3.096-5.166-6.37-10.204-.067-.109h.147c.8.118 1.589.293 2.363.524v.03l.771.971c1.903 2.43 3.696 4.945 5.423 7.51l2.514 3.88 1.76 2.811.536.767a20.328 20.328 0 0 1-1.257 6.772 17.896 17.896 0 0 1-8.351 9.897 15.026 15.026 0 0 1-9.123 1.211c-.293-.545-.582-1.04-.582-1.04l-5.447-8.04-3.353-4.89a40.082 40.082 0 0 1-3.511-4.664 3.526 3.526 0 0 1-.39-1.048l-.033-.042c-.356-.314-.612-.146-.696.093a.083.083 0 0 0 0 .058c.087.45.244.885.465 1.287a37.29 37.29 0 0 0 3.52 4.689l3.269 4.79 5.514 8.116.448.574a26.75 26.75 0 0 1-1.466-.29 22.38 22.38 0 0 0-.977-1.349l-4.705-5.108a38.553 38.553 0 0 1-4.916-6.428c-.213-.347-.38-.716-.565-1.076l-.055-.042c-.465-.21-.612.113-.628.314a.05.05 0 0 0 0 .05c.192.382.368.767.595 1.127a39.046 39.046 0 0 0 4.915 6.458l4.73 5.133.7.691c-.213-.054-.419-.105-.64-.163a18.038 18.038 0 0 1-5.82-2.812 12.692 12.692 0 0 1-3.45-5.213 24.147 24.147 0 0 1-1.583-5.983c-.18-1.979-.1-3.972.234-5.93a17.73 17.73 0 0 1 .968-3.427c2.443 3.77 5.096 7.416 7.76 11.029l4.17 5.703 2.703 3.88 1.227 1.6c.537.658.972 1.027.365-.205-.34-.738-.918-1.73-.918-1.73l-2.56-3.688-4.24-5.812c-2.808-3.809-5.611-7.614-8.15-11.59.159-.344.276-.721.46-1.048a9.875 9.875 0 0 1 1.567-2.095l.583-.494c.284-.226.587-.428.905-.604l.033-.059c.172-.481-.138-.611-.343-.611a.076.076 0 0 0-.055 0 8.645 8.645 0 0 0-.993.662l-.381.323a9.535 9.535 0 0 0-1.777 2.158c-.188.318-.31.683-.473 1.018l-.285-.457-.059-.033c-.486-.164-.59.18-.59.38a.062.062 0 0 0-.006.026.07.07 0 0 0 .005.025l.545.867a18.838 18.838 0 0 0-1.123 3.592 23.254 23.254 0 0 0-.327 6.034Zm32.643-6.374-2.582-3.968c-1.76-2.619-3.59-5.196-5.54-7.685l-.037-.046c.525.179 1.04.386 1.542.62a16.61 16.61 0 0 1 4.488 3.675 16.229 16.229 0 0 1 2.896 5.33c.412 1.446.65 2.935.708 4.437L58.05 52.92Zm1.42 97.559c-.033-.109-.042-.168-.1-.323-.252-.775-.734-1.822-.734-1.822l-.142-.269-.168-.305c-.373-.663-.775-1.362-1.198-2.096a87.808 87.808 0 0 0-1.765-2.862c-2.514-3.951-5.79-8.326-9.29-12.99-3.498-4.663-7.169-9.721-10.894-14.749a161.812 161.812 0 0 0-11.603-14.314c-2.04-2.129-4.052-4.14-5.8-6.181a33.511 33.511 0 0 1-2.38-3.092 20.893 20.893 0 0 1-.959-1.58l-.251-.507a10.567 10.567 0 0 1-.445-1.023l-.05-.046c-.419-.234-.6.026-.645.227l-.918.616-.05.037h-.03l-.209.143a17.881 17.881 0 0 0-1.785 1.6c-.038.042-.063.093-.1.135a.36.36 0 0 0-.285.352 21.861 21.861 0 0 0-4.115 7.936 51.49 51.49 0 0 0-1.819 9.512c-.658 6.486-.691 13.036-1.127 19.694a71.915 71.915 0 0 0 1.416 20.302 16.936 16.936 0 0 0 2.095 4.832 6.958 6.958 0 0 0 4.3 3.151 6.487 6.487 0 0 0 3.109-.181c.511.646.926 1.002.385-.146a4.72 4.72 0 0 0 1.676-1.06 10.243 10.243 0 0 0 2.3-4.882c.624-3.512.885-7.078.78-10.643.045-3.557.088-7.134.13-10.732.021-3.587.176-7.211 0-10.848a64.439 64.439 0 0 1 .08-6.491l.741 1.014c.516.67.948 1.048.37-.197-.323-.746-.88-1.756-.88-1.756l-.122-.184c.13-1.048.371-2.079.72-3.076.302-.813.692-1.797 1.282-1.617.387.113.744.31 1.044.578.282.267.501.593.641.955.49 1.733.71 3.531.654 5.331.03 3.679-.42 7.349-.662 11.091-.444 7.459-.461 14.989-.532 22.552-.038 3.772-.097 7.576-.248 11.377-.15 3.801-.494 7.609-.553 11.452-.197 7.681.084 15.391.067 23.126-.017 7.735-.666 15.504-.419 23.336.059 3.876-.21 7.811.176 11.754a21.89 21.89 0 0 0 1.207 5.841 9.7 9.7 0 0 0 3.6 4.806 9.499 9.499 0 0 0 5.84 1.462 6.522 6.522 0 0 0 5.062-3.222 21.518 21.518 0 0 0 2.133-11.695c-.07-1.01-.087-2.02-.15-3.03.132.136.272.265.419.386.649.549 1.144.838.318-.268-.247-.34-.553-.738-.8-1.044a271.459 271.459 0 0 1-.226-4.609c.155.084.167 0 0-.331-.449-11.536-.29-23.118-.193-34.695.515.54.88.771.243-.336l-.235-.419c0-1.035 0-2.07.025-3.105l.055-5.937a5.367 5.367 0 0 1 2.258-3.482c.344.272.499.305.252-.13a3.85 3.85 0 0 1 .75-.386 1.844 1.844 0 0 1 2.007 1.098 5.2 5.2 0 0 1 .356 1.022.543.543 0 0 0-.075.285.085.085 0 0 0 0 .051l.213.276c.067.361.13.725.168 1.09.21 1.931.02 3.888.054 5.895.13 7.899-.197 15.785-.188 23.68-.021 3.939.155 7.898.276 11.808.122 3.909-.05 7.84.101 11.783a30.536 30.536 0 0 0 2.384 11.578 6.41 6.41 0 0 0 4.693 3.654 8.386 8.386 0 0 0 5.867-1.144 8.697 8.697 0 0 0 3.03-5.121c.442-1.918.68-3.877.712-5.845.105-3.906-.331-7.786-.503-11.599-.063-3.599-.13-7.157-.197-10.74.059 0 .059-.054 0-.188-.071-4.023-.147-8.071-.222-12.068-.034-2.141-.042-4.253-.071-6.39.368.226.473.171 0-.419 0-1.216-.026-2.422-.042-3.638.528.562.917.838.268-.305a9.878 9.878 0 0 0-.277-.491c-.033-2.824-.075-5.661-.096-8.468.46.482.754.645.168-.419-.05-.105-.118-.214-.177-.323-.058-8.28-.062-16.51.03-24.647.042-3.772.172-7.442.26-11.167.419.448.657.561.125-.465l-.108-.214c.063-2.598.096-5.221.18-7.802.419.419.838.93.838.884.603.599 1.072.909.34-.243a41.82 41.82 0 0 0-1.07-1.635l-.07-.092c0-.419 0-.838.029-1.257.025-1.186.088-2.367.142-3.553.26.193.323.117 0-.419.105-2.305.214-4.61.193-6.902 0-1.793.084-3.578.247-5.346.072-.875.199-1.744.381-2.603a4.26 4.26 0 0 1 .604-1.609c.486.805.974 1.607 1.462 2.406.134.586.277 1.173.356 1.776.269 1.731.42 3.487.528 5.234.214 3.499.273 6.998.281 10.476.08 6.947-.398 13.828.31 20.637.2 1.697.523 3.378.968 5.028a8.422 8.422 0 0 0 2.514 4.517 5.863 5.863 0 0 0 4.945 1.383 8.04 8.04 0 0 0 4.408-2.577 16.082 16.082 0 0 0 3.025-9.395c.201-2.87.08-5.707 0-8.506l.101.18s1.085 1.806 1.06 1.718c.465.708.868 1.119.382-.167-.269-.763-.734-1.815-.734-1.815l-.838-1.542c-.21-6.21-.415-12.316-.616-18.32-.138-3.084-.146-6.105-.381-9.155a43.872 43.872 0 0 0-1.706-8.859 19.695 19.695 0 0 0-4.274-7.743 30.081 30.081 0 0 0-6.604-5.582 38.608 38.608 0 0 0-15.65-5.414 174.044 174.044 0 0 0-5.297-.419.302.302 0 0 0-.105 0 71.552 71.552 0 0 0-10.324-.125c-.545.037-1.073.125-1.614.184 0-.05-.046-.092-.058-.142l-.05-.042c-.42-.26-.625.02-.663.226a.054.054 0 0 0 0 .046c-1.187.15-2.358.35-3.511.595a5.856 5.856 0 0 1-.34-.838l-.046-.042c-.419-.264-.624 0-.67.218a.08.08 0 0 0 0 .054c.087.255.19.505.31.746a43.567 43.567 0 0 0-3.746 1.048c-.314-.088-.453.025-.52.167-1.194.42-2.367.868-3.503 1.367a50.346 50.346 0 0 0-3.239 1.541c-.524.285-1.047.562-1.55.868l-.763.46-.038.026-.08.05-.13.084-.255.163-.838.654c-.419.348-.78.687-.737.666-.595.642-.872 1.103.243.344l1.676-.985.054-.037.42.616 1.156 1.722c.681.955 1.38 1.943 2.095 2.962a223.45 223.45 0 0 0 4.748 6.194c3.352 4.228 7.035 8.632 10.505 13.174l22.3 31.272s1.324 1.642 1.287 1.563c.557.633 1.006.976.343-.231-.373-.725-.972-1.701-.972-1.701s-10.949-15.37-21.97-30.849c-3.523-4.634-7.253-9.105-10.655-13.384a227.202 227.202 0 0 1-4.81-6.247l-2.121-2.98-1.282-1.898-.42-.612.42-.263c.871-.52 1.789-.985 2.715-1.442.092.219.197.431.314.637L37.43 107.52c6.26 8.632 11.544 17.897 15.84 24.627 2.14 3.314 3.57 5.514 3.57 5.514s1.29 1.676 1.257 1.596c.549.646.988 1.002.356-.213-.357-.729-.935-1.718-.935-1.718s-1.223-1.886-3.071-4.723c-4.37-6.792-9.709-16.212-16.057-25.037L20.765 84.729a4.958 4.958 0 0 1-.31-.616c.591-.276 1.207-.52 1.815-.78l.62.73c1.026 1.232 2.137 2.556 3.31 3.956 1.433 1.73 2.883 3.595 4.379 5.527a319.141 319.141 0 0 1 9.01 12.323c5.933 8.515 11.568 17.18 15.872 23.646a3609.16 3609.16 0 0 0 3.562 5.313l.7.914c0 .779-.05 1.554-.063 2.338-.147 4.123-.151 8.276-.189 12.399Zm-50.506 5.028a8.537 8.537 0 0 1-3.117-3.817 27.865 27.865 0 0 1-2.024-7.869l.629.997c1.257 1.94 2.715 3.738 4.148 5.523l2.137 2.686 1.55 2.095.75.951a5.604 5.604 0 0 1-4.073-.557v-.009Zm9.001-19.275c-.084 3.608.038 7.199-.28 10.719a22.552 22.552 0 0 1-.99 5.137 5.864 5.864 0 0 1-3.008 3.771l-.084.025c-.31-.595-.65-1.148-.65-1.148l-.46-.645-1.056-1.404-2.18-2.744c-1.453-1.815-2.932-3.621-4.19-5.552l-.657-1.044-.055-.033c-.381-.134-.528.05-.574.23a66.255 66.255 0 0 1-.218-1.806 89.717 89.717 0 0 1-.297-10.17c0-.549.042-1.093.063-1.642l.167.218c2.129 2.778 4.14 5.652 6.13 8.539l3 4.337 2.138 3.009s1.35 1.63 1.311 1.546c.579.625 1.035.956.348-.226l-.997-1.676-2.032-2.858-3.047-4.404c-2.028-2.933-4.077-5.866-6.256-8.724l-.72-.922c.096-2.426.234-4.84.356-7.249.155-3.352.243-6.638.502-9.898 0-.192.038-.389.06-.59l.498.909c1.932 3.44 4.04 6.767 6.164 10.056l3.18 4.958 2.145 3.431 1.165 1.651c.15.233.338.437.558.604l-.034 3.595Zm3.164-30.916a1.466 1.466 0 0 0-1.525.767 12.133 12.133 0 0 0-1.048 2.694c-.084.352-.105.708-.167 1.065l-.994-1.513-2.627-3.771-2.711-3.705a25.966 25.966 0 0 0-2.933-3.536 2.74 2.74 0 0 1-.591-.918l-.046-.033c-.394-.252-.62-.03-.666.218a.104.104 0 0 0 0 .062c.167.436.42.835.741 1.174a24.369 24.369 0 0 1 2.866 3.423l2.661 3.629 2.573 3.687 1.567 2.376a35.044 35.044 0 0 0-.226 3.428c0 .947.03 1.873.054 2.812a4.964 4.964 0 0 0-.222-.57c-.322-.75-.9-1.752-.9-1.752l-.453-.666-1.16-1.622-2.372-3.189a65.023 65.023 0 0 1-4.45-6.52c-.214-.352-.394-.72-.587-1.081l-.055-.037c-.469-.202-.603.13-.62.331a.065.065 0 0 0 0 .05c.197.373.386.75.6 1.11a64.808 64.808 0 0 0 4.424 6.491l2.33 3.126 1.676 2.347 1.207 1.605c.272.36.507.615.59.599.068 2.665.168 5.309.064 7.961l-.088 6.998a4.323 4.323 0 0 0-.193-.503c-.31-.75-.838-1.768-.838-1.768l-2.04-3.273-3.24-5.028c-2.158-3.352-4.295-6.73-6.248-10.203l-.599-1.086-.054-.037a.414.414 0 0 0-.449 0 85.14 85.14 0 0 1 .54-4.518l.52 1.006a74.471 74.471 0 0 0 5.804 8.649l3.063 4.19 1.463 2.129.565.871 1.157 1.643c.494.683.913 1.081.373-.184a16.12 16.12 0 0 0-.838-1.777l-.453-.708-1.496-2.192-3.122-4.261a74.872 74.872 0 0 1-5.866-8.703l-.561-1.098-.055-.038c-.239-.105-.39-.071-.486 0a31.16 31.16 0 0 1 4.17-12.152l.988-1.257.264.344 1.492 1.818 2.707 3.122c1.877 2.116 3.884 4.312 5.845 6.658.42.495.797 1.023 1.195 1.53a2.453 2.453 0 0 0-.52-.176v-.038Zm.176-1.458c-1.995-2.41-4.031-4.639-5.933-6.78l-2.741-3.147-1.643-2.003-.377-.49a17.46 17.46 0 0 1 1.676-1.496l.248-.163.05-.034.758-.511c.06.138.105.26.193.419l.163.33c.29.563.61 1.109.96 1.635a29.894 29.894 0 0 0 2.376 3.143c1.73 2.061 3.725 4.056 5.732 6.143a152.48 152.48 0 0 1 11.431 14.004l10.732 14.544c3.448 4.609 6.675 8.905 9.185 12.739 1.257 1.919 2.359 3.708 3.264 5.33l.42.787.142.26 1.055 1.718c.132.222.291.426.474.608 0 1.621-.042 3.235-.05 4.865a33.286 33.286 0 0 0-.96-1.601l-25.636-34.57c-3.863-5.338-7.593-10.823-11.52-15.705v-.025Zm2.447 4.911c-.046-.231-.092-.474-.15-.712 2.74 3.658 5.425 7.542 8.179 11.385l26.004 35.085s1.358 1.617 1.316 1.538c.113.117.21.213.302.301 0 1.676-.042 3.327-.042 5.029l-.02-.03-1.212-1.521-.205-.218-.235-.251-1.156-1.333L55 156.144c-4.22-5.334-8.8-13.358-14.72-20.394l-8.18-10.74a251.45 251.45 0 0 0-3.872-4.898l-1.856-2.238-1.203-1.391c-.444-.507-.75-.838-.767-.867l-.058-.025a.364.364 0 0 0-.335.1c.058-1.353.092-2.711.042-4.068a20.39 20.39 0 0 0-.298-2.829v-.025Zm-.712 26.818.565.616c6.265 6.926 11.561 14.72 17.939 21.634l15.588 16.761s1.525 1.459 1.479 1.383c.641.557 1.136.838.327-.26-.461-.662-1.182-1.55-1.182-1.55l-15.332-16.485c-6.486-6.956-11.842-14.888-18.261-21.986l-.838-.926-.063-.021c-.11 0-.13.042-.197.063.038-2.095.054-4.191.134-6.286.096-3.771.473-7.496.746-11.259.02-.335.025-.666.042-.997l.616.695 1.08 1.257 1.824 2.188c1.257 1.512 2.514 3.13 3.813 4.814 2.577 3.39 5.321 6.994 8.062 10.589 5.833 6.935 10.375 14.708 14.506 20.114a58.658 58.658 0 0 0 2.934 3.591l.498.553.206.222.762.721c.394.343.78.674.755.636.125.101.23.172.33.248 0 1.378.026 2.778.03 4.165-.419-.696-1.035-1.588-1.035-1.588l-3.021-3.742-15.718-19.079a546.446 546.446 0 0 1-8.267-10.354l-3.717-4.865c-.98-1.32-1.907-2.573-2.762-3.733l-.678-.93-.059-.03c-.494-.13-.578.222-.566.419a.064.064 0 0 0 0 .051l.67.921 2.64 3.571c1.17 1.533 2.398 3.146 3.671 4.81a522.662 522.662 0 0 0 8.159 10.233l15.504 18.81 3.49 4.295s1.412 1.567 1.37 1.487c.114.114.214.206.31.29 0 1.537.022 3.084.03 4.609l-.071-.117-2.934-3.952c-4.19-5.502-10.14-12.571-16.17-19.556-3.008-3.507-6.009-7.031-8.762-10.396-1.357-1.676-2.673-3.352-3.926-4.899l-2.887-3.771-.691-.922-.06-.029c-.498-.121-.573.231-.56.419a.058.058 0 0 0 0 .05l.682.914 2.766 3.62a231.966 231.966 0 0 0 3.876 4.848c2.72 3.332 5.678 6.814 8.645 10.271 5.941 6.914 11.82 13.828 15.948 19.229l3.23 4.299.172.239.742.909c.021 2.699.025 5.381.055 8.092l-.646-.838c-1.546-1.932-3.172-3.772-4.848-5.607-3.352-3.633-6.868-7.077-10.32-10.584-7.007-6.877-12.274-15.354-19.448-22.209l-.918-.838-.062-.021a.566.566 0 0 0-.306.054c.025-1.625.08-3.247.109-4.852v-.008Zm-.985 36.036v.021c1.207 1.58 2.69 2.833 3.926 4.249a66.048 66.048 0 0 1 3.575 4.484 349.69 349.69 0 0 1 3.352 4.684l2.292 3.256s1.34 1.639 1.307 1.551c.578.624 1.035.955.348-.227-.386-.708-.989-1.676-.989-1.676l-2.175-3.088c-1.118-1.601-2.237-3.21-3.406-4.785a92.066 92.066 0 0 0-3.658-4.61c-1.27-1.5-2.812-2.774-3.96-4.286a8.28 8.28 0 0 1-.591-.905c.036-1.565.092-3.126.167-4.685.114.214.214.419.34.637a57.488 57.488 0 0 0 3.65 4.538c1.16 1.513 2.208 3.13 3.251 4.752 1.044 1.621 2.095 3.256 3.256 4.819a29.136 29.136 0 0 0 1.882 2.25c.419.477.419.419.515.54l.264.26s1.676 1.345 1.634 1.257c.173.105.352.198.537.281l-.088 9.462c0 6.796.033 13.589.264 20.377-.306-.419-.57-.759-.57-.759l-2.703-2.991a203.312 203.312 0 0 1-4.19-4.727 50.55 50.55 0 0 1-7.124-10.304l-.494-1.123-.05-.042c-.26-.134-.42-.084-.512 0 .025-1.705.042-3.407.034-5.108l.272.352 10.991 13.992s1.4 1.579 1.362 1.5c.591.611 1.056.934.344-.231-.42-.704-1.052-1.651-1.052-1.651l-11.041-14.062-.771-.981-.06-.025h-.054c0-1.63-.02-3.26-.046-4.886l.042.059c2.096 2.887 4.32 5.636 6.583 8.359l5.766 6.923 1.37 1.483c.595.604 1.065.93.344-.239a32.804 32.804 0 0 0-1.073-1.638l-5.715-6.872c-2.297-2.762-4.572-5.544-6.663-8.452l-.67-.951a558.08 558.08 0 0 1-.042-5.297l.104.147c2.142 2.975 4.409 5.866 6.73 8.678l5.984 7.123s1.462 1.517 1.42 1.442c.616.582 1.094.888.331-.251-.419-.683-1.118-1.605-1.118-1.605l-5.922-7.032c-2.35-2.866-4.65-5.774-6.813-8.799l-.72-1.014v-1.257c-.021-.977.033-1.953.033-2.929v.012Zm0 26.399c.03-.867.03-1.726.046-2.594l.394.893a50.857 50.857 0 0 0 7.098 10.304c1.341 1.588 2.732 3.13 4.128 4.672l2.845 3.147 1.215 1.194c.038.943.034 1.886.08 2.824 0 .478.05.956.075 1.433l-2.372-2.568c-1.486-1.64-2.95-3.3-4.39-4.978a247.648 247.648 0 0 1-8.381-10.292l-.759-.984-.059-.03h-.025c.021-1.035.059-2.04.105-3.05v.029Zm16.007 32.349a15.294 15.294 0 0 1-1.697 5.544 6.29 6.29 0 0 1-.813 1.16c-.034-.046-.034-.058-.071-.104l-1.136-1.576-4.47-5.485a27.143 27.143 0 0 0-6.106-5.837 6.3 6.3 0 0 0-1.17-.578.25.25 0 0 0-.066 0c-.486.146-.336.503-.235.662a.056.056 0 0 0 .012.022.05.05 0 0 0 .021.015 5.71 5.71 0 0 1 1.06.524 26.305 26.305 0 0 1 5.821 5.561l4.5 5.518s1.48 1.526 1.446 1.433l.117.093c-.41.404-.876.748-1.382 1.022a2.891 2.891 0 0 0-.202-.255l-1.227-1.505-3.927-4.19a31.443 31.443 0 0 0-4.961-4.467 4.409 4.409 0 0 0-1.22-.574.284.284 0 0 0-.07 0c-.487.197-.248.549-.16.687a.067.067 0 0 0 .038.034c.362.107.705.27 1.018.482a30.635 30.635 0 0 1 4.74 4.269l3.934 4.191s1.576 1.42 1.534 1.341c.075.054.13.088.2.134a5.411 5.411 0 0 1-1.675.507 9.027 9.027 0 0 1-5.448-1.278 8.8 8.8 0 0 1-3.394-4.459 33.892 33.892 0 0 1-1.387-11.611v-2.095c.252.142.507.276.746.419a32.412 32.412 0 0 1 6.747 6.478l3.067 3.625a50.21 50.21 0 0 0 1.613 1.76l.716.72s1.652 1.354 1.61 1.257c.716.474 1.227.679.285-.301l-1.303-1.429-.575-.574a40.522 40.522 0 0 1-1.626-1.752l-3.109-3.67a33.333 33.333 0 0 0-7.01-6.705c-.352-.239-.733-.419-1.098-.649h-.05c0-2.988-.046-5.976 0-8.93.025-2.56.113-5.116.21-7.672l.288.373a256.834 256.834 0 0 0 8.26 10.153 253.175 253.175 0 0 0 4.328 4.911l3.009 3.26.205.192c.35 3.096.367 6.22.05 9.32l.013.029Zm6.8-60.83a3.628 3.628 0 0 0-1.852-2.644 2.681 2.681 0 0 0-2.514.293l-.93-1.303-2.48-3.055-3.772-4.898a66.355 66.355 0 0 0-8.25-9.278 3.198 3.198 0 0 1-.709-.838l-.037-.021c-.348-.167-.641-.113-.658.243a.11.11 0 0 0 0 .076c.228.41.529.775.888 1.077a64.708 64.708 0 0 1 8.046 9.021l3.712 4.819 1.91 2.38.722.868s.75.775 1.165 1.185c-.076.063-.172.114-.24.181a7.117 7.117 0 0 0-1.868 2.543 3.615 3.615 0 0 0-.302 1.609v1.509l-.025 3.008-.03 2.959v-.03l-5.786-8.137c-2.363-3.302-4.798-6.571-7.459-9.638l-.838-.943-.063-.021c-.502-.083-.545.281-.515.478a.06.06 0 0 0 0 .046l.838.935c2.594 3.008 4.974 6.197 7.295 9.436l5.866 8.226s.336.419.671.808l-.02 1.928v2.258c-.085-.088-.13-.146-.265-.276-.566-.57-1.32-1.4-1.32-1.4l-.59-.591a26.403 26.403 0 0 1-1.882-2.208c-1.186-1.538-2.238-3.189-3.302-4.84-1.064-1.651-2.129-3.31-3.331-4.89-1.203-1.579-2.653-2.933-3.667-4.554a7.93 7.93 0 0 1-.561-1.052l-.05-.038a.534.534 0 0 0-.323-.067c.226-4.433.507-8.858.532-13.283.063-3.449.08-6.876.113-10.3l.775.725c6.969 6.667 12.177 14.984 19.087 21.861 3.394 3.457 6.855 6.838 10.149 10.375 1.642 1.764 3.247 3.57 4.768 5.447l1.153 1.442.633.72c0 1.199.02 2.393.037 3.592a45.71 45.71 0 0 0-.641-.704l-2.56-2.41-3.826-3.742a90.687 90.687 0 0 1-7.153-7.928l-.419-.591c-.096-.159-.105-.28-.134-.398l.013.03Zm24.983-14.05c-2.799-1.765-3.18-5.561-3.771-8.8a19.486 19.486 0 0 0 2.552 4.324 39.856 39.856 0 0 0 1.697 2.096l1.429 1.646s1.487 1.492 1.441 1.417l.084.071a4.952 4.952 0 0 1-3.453-.784l.021.03Zm10.56-12.001a19.237 19.237 0 0 1-2.246 9.503 7.853 7.853 0 0 1-3.725 2.984 5.42 5.42 0 0 1-.763.18c-.055-.084-.067-.126-.143-.235a32.262 32.262 0 0 0-1.148-1.584l-1.395-1.605a68.086 68.086 0 0 1-1.705-2.095 18.088 18.088 0 0 1-2.69-4.609 7.316 7.316 0 0 1-.286-1.14l-.042-.05a.476.476 0 0 0-.419-.147 60.235 60.235 0 0 1-.23-4.366c.038.08.071.163.109.243a42.704 42.704 0 0 0 3.771 5.866c.692.931 1.412 1.84 2.154 2.732l1.739 1.991s1.546 1.454 1.504 1.366c.675.532 1.17.783.31-.277l-1.198-1.525-.524-.582-1.144-1.32a64.668 64.668 0 0 1-2.17-2.741 41.832 41.832 0 0 1-3.772-5.866c-.18-.365-.356-.734-.507-1.106l-.05-.042a.578.578 0 0 0-.243-.072v-2.933c0-1.114 0-2.242.025-3.352.096.385.22.763.369 1.131a27.962 27.962 0 0 0 4.903 7.392l5.028 5.636 1.404 1.441c.586.6 1.06.931.34-.243-.42-.699-1.12-1.617-1.12-1.617l-5.003-5.594a27.56 27.56 0 0 1-4.87-7.287 8.475 8.475 0 0 1-.372-1.144l-.046-.046c-.377-.26-.574-.063-.65.121 0-2.095.034-4.219.034-6.339l.117.234a65.411 65.411 0 0 0 6.286 9.357l3.407 4.454 1.638 2.263.612.884 1.206 1.609c.516.667.947 1.052.365-.197-.268-.6-.569-1.184-.901-1.751l-.478-.7-1.676-2.325-3.47-4.543a65.54 65.54 0 0 1-6.33-9.399l-.541-1.106-.05-.038a.56.56 0 0 0-.193-.05c0-3.386-.076-6.792-.29-10.216-.125-1.642-.264-3.285-.515-4.927 4.81 7.781 9.638 15.156 13.057 21.106l2.363 4.241c.105 2.769.18 5.585.151 8.405l.013.03Zm-9.198-54.562a21.404 21.404 0 0 1 5.364 7.04 35.045 35.045 0 0 1 2.384 8.799c.18 1.098.28 2.208.356 3.323a4.566 4.566 0 0 0-.276-.612l-.906-1.726-.46-.733a105.634 105.634 0 0 1-1.677-2.892l-3.172-5.912a57.97 57.97 0 0 0-7.37-11.289 31.614 31.614 0 0 1 5.757 4.002Zm-7.123-4.769a.507.507 0 0 0-.047.344.07.07 0 0 0 0 .05l.838.897a56.5 56.5 0 0 1 7.162 10.945l3.121 5.825a98.733 98.733 0 0 0 1.651 2.87l.62 1.001s1.258 1.714 1.228 1.622c.382.444.683.712.641.465.139 1.97.176 3.968.256 5.984l.042 1.219c-.42-.687-1.098-1.609-1.098-1.609l-.599-.767a83.303 83.303 0 0 1-3.156-4.274c-2.023-2.908-3.913-5.921-5.778-8.946a171.054 171.054 0 0 0-11.854-17.792l-.42-.511a37.29 37.29 0 0 1 7.384 2.677h.009ZM55.8 81.226a.765.765 0 0 0-.05.285l.78.964A166.273 166.273 0 0 1 68.144 99.88c1.835 2.98 3.692 5.955 5.686 8.846a84.64 84.64 0 0 0 3.101 4.257l.93 1.19s1.454 1.542 1.408 1.467c.13.126.247.226.356.318.088 2.594.18 5.192.268 7.824v.247a28.359 28.359 0 0 0-.67-1.257l-11.909-18.437-7.542-11.683c-2.603-3.868-5.523-7.48-8-11.372l-.49-.81a35.12 35.12 0 0 1 4.51.738l.007.017Zm-8.296-1.09c1.001.08 2.002.164 3.004.26a.79.79 0 0 0-.03.16v.054l.654 1.077c2.468 3.876 5.339 7.43 7.878 11.192l7.442 11.478 12.11 18.73s1.257 1.676 1.21 1.618l.169.188c.092 2.824.2 5.67.297 8.544l-1.173-2.095c-3.772-6.704-9.328-15.085-14.666-23.805-.088-.348-.126-.7-.243-1.048a4.767 4.767 0 0 0-.6-1.332l-.213-.348a1.198 1.198 0 0 0-.49-.235.69.69 0 0 0-.264 0l-7.962-13.153a194.52 194.52 0 0 0-4.098-6.357c-.679-.98-1.328-1.986-2.049-2.878-.348-.449-.683-.88-.98-1.32l-.273-.42c-.075-.12-.105-.196-.16-.3l.437-.01Zm-8.234-.334h.787c.08.305.186.602.319.888 1.63 2.514 3.331 4.718 4.949 7.123a307.997 307.997 0 0 1 4.701 7.224l4.639 7.287 2.4 3.6.768 1.106s1.32 1.651 1.286 1.567c.57.633 1.018.972.352-.222l-.972-1.676-.528-.759-2.439-3.641-4.718-7.4c-1.563-2.472-3.143-4.944-4.79-7.37-1.647-2.427-3.46-4.828-4.982-7.17a4.246 4.246 0 0 1-.188-.532 93.43 93.43 0 0 1 5.355.222c.11.253.239.498.385.733l.18.293c.306.47.646.918.99 1.362.708.868 1.323 1.798 2.002 2.787a187.276 187.276 0 0 1 4.035 6.239l8.088 13.367a5.354 5.354 0 0 0-1.052 2.694c-.172.922-.251 1.84-.335 2.766-.13 1.676-.164 3.352-.185 5.028l-.967-1.676-.575-.813a203.057 203.057 0 0 1-3.23-4.789l-6.336-9.7a109.353 109.353 0 0 0-6.922-9.316 62.432 62.432 0 0 1-7.425-8.737c-.042-.083-.067-.167-.11-.247 1.484-.138 2.988-.247 4.51-.247l.008.008Zm-5.284.38c.075.16.134.332.21.491a58.034 58.034 0 0 0 7.39 8.716 109.66 109.66 0 0 1 6.785 9.089c2.125 3.134 4.152 6.344 6.227 9.524l3.176 4.735.91 1.299s1.336 1.643 1.302 1.555c.114.13.214.226.31.322-.041 1.622-.104 3.269-.163 4.903a72.572 72.572 0 0 0-.503-.725l-.654-.838a104.454 104.454 0 0 1-4.09-5.569c-2.626-3.771-5.082-7.706-7.609-11.586-2.526-3.88-5.112-7.731-7.999-11.368a101.906 101.906 0 0 1-8.716-10.007 40.285 40.285 0 0 1 3.415-.557l.009.017Zm-4.19.73a84.588 84.588 0 0 0 8.766 10.115c2.816 3.541 5.372 7.296 7.848 11.1 2.476 3.805 4.894 7.66 7.475 11.419 1.258 1.881 2.628 3.725 4.01 5.539l1.102 1.4s.713.763 1.12 1.186c-.05 1.508-.097 3.008-.151 4.521l-2.217-2.971c-4.19-5.753-8.984-14.016-14.83-21.634-2.933-3.8-6.163-7.354-9.218-10.665-1.513-1.676-2.963-3.28-4.287-4.86l-1.89-2.334-1.144-1.513-.222-.314a35.99 35.99 0 0 1 3.616-1.006l.021.017Zm29.868 53.636-3.068-4.568c-4.366-6.537-10.056-15.349-16.094-24.002-3.013-4.328-6.11-8.607-9.14-12.541a219.97 219.97 0 0 0-4.445-5.628 603.97 603.97 0 0 1-2.12-2.573l-1.363-1.592-.477-.562c.306-.125.595-.268.9-.39.512-.2 1.053-.351 1.576-.531l.348.49 1.04 1.383 1.877 2.33c1.315 1.575 2.748 3.18 4.24 4.822 3 3.277 6.18 6.743 9.068 10.451 5.761 7.413 10.496 15.563 14.611 21.291a110.872 110.872 0 0 0 2.846 3.88l.465.603c-.084 2.402-.143 4.824-.206 7.245l-.058-.108Zm.075 62.121a27.704 27.704 0 0 0-1.29-1.417l-5.557-4.999a73.764 73.764 0 0 1-6.172-6.323l-.784-.955-.062-.03c-.499-.1-.562.252-.541.449a.064.064 0 0 0 0 .05l.8.972a73.73 73.73 0 0 0 6.127 6.286l5.602 5.028 1.592 1.257c.1.075.189.13.277.189.042 2.233.071 4.454.113 6.704-.377-.507-.754-.964-.754-.964l-2.25-2.242-3.382-3.239a39.288 39.288 0 0 1-6.063-6.993c-.235-.335-.42-.704-.608-1.056l-.054-.038c-.474-.193-.608.134-.616.335v.051c.21.368.39.758.632 1.106a39.6 39.6 0 0 0 6.068 7.027l3.327 3.189 1.642 1.605.688.708 1.374 1.295.201 10.919-.813-1.047-.544-.616-1.622-1.907-3.164-3.905a45.744 45.744 0 0 0-7.006-7.295l-1.022-.75h-.067c-.503.033-.457.419-.386.586 0 .03 0 .034.03.042l.989.725a44.826 44.826 0 0 1 6.775 7.048l3.114 3.843 1.6 1.894.683.775s1.312 1.257 1.446 1.332c.025 1.257.046 2.515.071 3.747-.557-.591-1.4-1.367-1.4-1.367l-2.35-1.914a108.981 108.981 0 0 1-3.352-2.883 74.394 74.394 0 0 1-6.286-6.231l-.804-.939-.063-.025c-.503-.092-.558.264-.532.461 0 .019.008.036.02.05l.839.951a73.303 73.303 0 0 0 6.247 6.194 105.44 105.44 0 0 0 3.353 2.857l2.455 2.003s1.722 1.22 1.676 1.153c.105.067.193.113.285.167.067 3.403.134 6.793.193 10.204a14.261 14.261 0 0 1-1.635 5.476 5.38 5.38 0 0 1-3.1 2.489c-.042-.033-.042-.042-.088-.079l-1.509-1.232-1.538-1.086a48.377 48.377 0 0 1-1.801-1.361 18.06 18.06 0 0 1-3.193-3.084 2.847 2.847 0 0 1-.503-.973l-.042-.037c-.42-.273-.633-.088-.687.155a.114.114 0 0 0 0 .063c.128.447.342.865.628 1.232a18.364 18.364 0 0 0 3.273 3.184c.59.469 1.19.922 1.798 1.366l1.567 1.102s1.043.616 1.52.884a6.437 6.437 0 0 1-.88.176 5.95 5.95 0 0 1-2.768-.131 5.949 5.949 0 0 1-2.41-1.369 11.313 11.313 0 0 1-2.515-5.108 37.436 37.436 0 0 1-1.005-6.729l.787.557a58.66 58.66 0 0 1 4.962 4.19l4.232 3.935s1.655 1.316 1.605 1.257c.7.486 1.215.708.289-.297l-1.32-1.434-4.215-3.926a61.231 61.231 0 0 0-5.108-4.299l-1.031-.725h-.063a.535.535 0 0 0-.18.05 77.145 77.145 0 0 1-.113-4.295v-.741l.285.389a67.425 67.425 0 0 0 5.996 6.043l5.418 4.906 1.584 1.258c.67.507 1.182.775.302-.285a26.288 26.288 0 0 0-1.312-1.454l-5.38-4.874a68.152 68.152 0 0 1-6.018-6.051 3.547 3.547 0 0 1-.574-.917l-.037-.021a.453.453 0 0 1-.264-.109c0-3.352 0-6.751-.164-10.124-.314-7.961-.025-15.973.059-23.998v-6.624l.247.305c2.024 2.464 4.19 4.777 6.403 7.07l5.678 5.837s1.554 1.42 1.504 1.349c.186.166.393.307.616.419-.014 1.17-.013 2.365.004 3.583l.021.021Zm-.356-4.358a29.409 29.409 0 0 0-1.22-1.534l-5.627-5.787c-2.23-2.325-4.442-4.668-6.478-7.144l-.775-.964-.046-.025v-4.262c0-.419-.047-.808-.08-1.211a93.215 93.215 0 0 0 6.704 7.426l3.772 3.695 2.686 2.515s.775.636 1.257 1.005c.029 2.225.075 4.471.109 6.705a4.272 4.272 0 0 0-.335-.44l.033.021Z"/><path fill="#37A75F" d="M30.219 47.083c-.478-.193-.6.147-.612.344a.05.05 0 0 0 0 .05l.608 1.098A127.202 127.202 0 0 0 38.77 61.41l4.585 6.18 2.987 4.132 1.257 1.576c.55.645.993 1.001.357-.214C47.6 72.354 47 71.37 47 71.37l-2.82-3.91-4.66-6.285a128.088 128.088 0 0 1-8.66-12.99l-.6-1.085-.042-.017Zm25.429 17.26a27.88 27.88 0 0 0-.771-1.798l-2.032-3.603-3.323-5.636c-2.276-3.709-4.58-7.446-7.124-10.941a3.733 3.733 0 0 1-.486-.985l-.038-.03c-.172-.041-.272-.175-.398-.204-.125-.03-.268.159-.297.297a.095.095 0 0 0 0 .067c.122.45.322.876.59 1.257 2.536 3.47 4.773 7.094 7.02 10.74l3.26 5.523 2.145 3.771s1.127 1.78 1.094 1.701c.469.717.875 1.115.36-.159Zm-41.916 86.01-1.676-2.657-2.552-3.876c-1.705-2.581-3.403-5.158-4.915-7.836l-.6-1.085-.054-.038c-.473-.193-.6.147-.616.344a.058.058 0 0 0 0 .05l.608 1.098c1.508 2.665 3.18 5.213 4.856 7.752l2.514 3.805 1.752 2.753 1.152 1.651c.503.683.922 1.077.373-.185-.306-.754-.842-1.776-.842-1.776Zm2.036-9.801-1.752-3.105-2.748-4.718a104.312 104.312 0 0 0-6.072-9.093l-.763-.989-.063-.029c-.494-.113-.561.247-.544.444a.061.061 0 0 0 0 .05l.758.981a103.207 103.207 0 0 1 5.93 8.867l2.698 4.609 1.835 3.256s1.14 1.776 1.11 1.676c.49.691.901 1.085.378-.18a32.597 32.597 0 0 0-.767-1.769ZM4.826 118.268a215.799 215.799 0 0 0 5.217 8.426l4.638 7.057s1.258 1.676 1.228 1.609c.536.658.972 1.022.36-.206a30.066 30.066 0 0 0-.909-1.734l-4.61-6.994c-1.818-2.812-3.603-5.644-5.283-8.536l-.62-1.081-.055-.033c-.477-.185-.595.159-.607.356v.05l.64 1.086Zm61.675.653-.037-.05c-.377-.314-.616-.084-.692.13a.065.065 0 0 0-.005.027 5.7 5.7 0 0 0 .425 1.284l12.126 17.817s1.282 1.677 1.257 1.589c.545.645.985 1.001.352-.218a32.012 32.012 0 0 0-.939-1.723l-12.101-17.775a4.871 4.871 0 0 1-.386-1.081Zm-43.069 35.827a.42.42 0 0 0-.285.042c-.02 0 .034.03-.05 0-.26.164-.042.164-.105.159h.042l.042-.033a.216.216 0 0 0 .063-.076v.034l-.16.155h-.041s-.025 0-.025.029v.093a.538.538 0 0 0 .005.193.05.05 0 0 0 .016.02l.9.872a35.71 35.71 0 0 1 6.793 7.894l2.879 4.408 1.462 2.2.608.868s1.349 1.638 1.32 1.546c.59.62 1.047.939.343-.23l-.997-1.677-1.965-2.899-2.934-4.492a36.683 36.683 0 0 0-6.997-8.171l-.893-.859-.02-.076Zm12.306 68.042-6.025-5.912a46.298 46.298 0 0 1-6.432-7.735c-.226-.34-.42-.709-.612-1.061l-.055-.037c-.477-.189-.607.142-.616.343a.067.067 0 0 0-.005.026c0 .008.002.017.006.025.213.364.419.746.632 1.102a46.99 46.99 0 0 0 6.42 7.743l6.084 5.972 1.517 1.324c.65.54 1.152.838.318-.269-.469-.662-1.232-1.521-1.232-1.521Zm-.228 3.491-12.387-12.479a6.064 6.064 0 0 1-.713-.913l-.046-.021a1.983 1.983 0 0 0-.46-.046c-.122.042-.172.247-.168.364a.118.118 0 0 0 0 .063c.242.38.523.734.838 1.056l12.357 12.449s1.571 1.4 1.52 1.325c.659.536 1.157.8.307-.281a37.075 37.075 0 0 0-1.249-1.517Zm10.724-30.418 11.105 11.649s1.542 1.438 1.491 1.362c.646.549 1.14.838.315-.276-.474-.662-1.211-1.542-1.211-1.542l-11.172-11.733-.859-.901-.062-.021c-.499-.059-.528.31-.49.503 0 .033 0 .038.02.05l.863.909Zm-.905 15.874c.264.331.532.658.813.968a54.967 54.967 0 0 0 5.028 4.877l4.68 3.939s1.702 1.257 1.643 1.178c.7.473 1.224.695.285-.302-.544-.603-1.374-1.391-1.374-1.391l-4.652-3.914a54.285 54.285 0 0 1-5.028-4.882 21.72 21.72 0 0 1-.788-.942l-.058-.026c-.503-.1-.57.248-.545.445-.021.033-.017.037-.004.05ZM55.8 224.433a89.051 89.051 0 0 1-3.176-2.833 79.698 79.698 0 0 1-5.909-6.126l-.8-.947-.063-.025c-.502-.096-.557.26-.532.457a.058.058 0 0 0 0 .05l.809.955a80.306 80.306 0 0 0 5.866 6.085 90.635 90.635 0 0 0 3.143 2.82l2.372 1.961s1.735 1.207 1.676 1.135c.729.419 1.257.637.276-.314l-1.412-1.349-2.25-1.869Zm65.44-179.135c.172-.482-.134-.612-.344-.612a.057.057 0 0 0-.025-.005.064.064 0 0 0-.025.005 8.408 8.408 0 0 0-.997.662l-.377.323a9.443 9.443 0 0 0-1.777 2.158c-.193.319-.31.683-.478 1.018l-.284-.457-.059-.033c-.482-.163-.591.18-.591.381a.055.055 0 0 0-.007.025c0 .01.003.018.007.026l.545.867a18.448 18.448 0 0 0-1.127 3.591 23.248 23.248 0 0 0-.374 6.038 22.49 22.49 0 0 0 1.45 6.135 14.858 14.858 0 0 0 3.353 5.615 16.241 16.241 0 0 0 5.866 3.214c.88.285 1.785.503 2.694.7.273.23.444.314.365.092.524.104 1.056.15 1.588.222a1.7 1.7 0 0 0 .172.205c.528.624.938.947.389-.138.474.054.935.15 1.413.172a14.165 14.165 0 0 0 6.704-1.069 18.022 18.022 0 0 0 9.219-9.57 22.23 22.23 0 0 0 1.676-7.225c.486.625.838.935.31-.26a13.379 13.379 0 0 0-.289-.636c.055-1.6-.086-3.2-.419-4.765A16.344 16.344 0 0 0 143.063 42a15.687 15.687 0 0 0-7.568-2.577l-.108-.18-.055-.033c-.331-.114-.478 0-.545.171a17.174 17.174 0 0 0-2.233.034 18.11 18.11 0 0 0-8.578 3.314l-.725.566-.247-.369-.058-.029c-.486-.147-.579.21-.575.419a.086.086 0 0 0 0 .05l.294.42c-.455.436-.875.907-1.257 1.407-.52.688-.755 1.178.289.302.318-.268.678-.574.963-.809l.42-.293c2.966 4.488 5.552 9.219 8.305 13.878 1.374 2.33 2.786 4.643 4.311 6.889a90.613 90.613 0 0 0 2.372 3.31l.809 1.023s1.446 1.559 1.408 1.47c.62.587 1.094.885.331-.25l-1.094-1.61-.561-.712a61.441 61.441 0 0 1-2.41-3.315c-1.55-2.254-2.987-4.61-4.383-6.947-2.795-4.723-5.426-9.563-8.473-14.168l-.033-.046.033-.03.105-.087c.264-.23.544-.44.838-.629.549-.389 1.125-.74 1.723-1.047a.51.51 0 0 0-.084.306v.05l.721 1.018a267.252 267.252 0 0 1 8.104 12.152l3.825 6.231 2.477 4.215s1.16 1.76 1.131 1.677c.495.687.909 1.076.373-.185a31.976 31.976 0 0 0-.809-1.785l-2.338-3.98-3.893-6.366a279.052 279.052 0 0 0-8.259-12.411l-.725-1.019-.058-.033a.588.588 0 0 0-.252 0 17.071 17.071 0 0 1 4.379-1.58 17.573 17.573 0 0 1 4.094-.251l.331.532 6.26 10.027 3.038 5.062 2.003 3.528 1.086 1.702c.477.704.88 1.106.381-.172-.277-.767-.763-1.806-.763-1.806l-1.906-3.352-3.097-5.167-6.365-10.203-.071-.11h.146c.8.119 1.59.294 2.364.524v.03l.775.972a131.698 131.698 0 0 1 5.418 7.509l2.514 3.88 1.76 2.812.536.767a20.182 20.182 0 0 1-1.257 6.771 17.89 17.89 0 0 1-8.351 9.898 15.027 15.027 0 0 1-9.122 1.21 36.436 36.436 0 0 0-.583-1.039l-5.447-8.04-3.331-4.89a39.684 39.684 0 0 1-3.516-4.665 3.598 3.598 0 0 1-.385-1.047l-.034-.042c-.36-.314-.616-.147-.7.092a.116.116 0 0 0 0 .059c.087.451.245.885.47 1.286a36.87 36.87 0 0 0 3.52 4.69l3.268 4.789 5.514 8.116.444.574c-.494-.084-.984-.18-1.466-.289a22.444 22.444 0 0 0-.977-1.35l-4.705-5.107a38.741 38.741 0 0 1-4.915-6.428c-.214-.348-.382-.717-.566-1.077l-.055-.042c-.465-.21-.607.113-.628.315v.05c.193.381.373.767.595 1.127a39.081 39.081 0 0 0 4.915 6.457l4.735 5.133.696.692c-.214-.055-.419-.105-.641-.164a18.02 18.02 0 0 1-5.817-2.812 12.696 12.696 0 0 1-3.452-5.212 24.5 24.5 0 0 1-1.584-5.984 23.092 23.092 0 0 1 .234-5.93c.206-1.172.532-2.32.973-3.427 2.438 3.772 5.095 7.417 7.756 11.03l4.169 5.702 2.703 3.88 1.228 1.6c.536.659.972 1.028.364-.204a25.264 25.264 0 0 0-.917-1.731l-2.561-3.688-4.24-5.811c-2.808-3.81-5.611-7.614-8.146-11.59.155-.344.276-.721.457-1.048a9.73 9.73 0 0 1 1.571-2.095l.578-.495c.285-.226.587-.428.905-.603l.084-.059Zm26.742 7.622-2.581-3.968c-1.76-2.619-3.591-5.196-5.535-7.685l-.038-.046c.524.18 1.037.386 1.538.62 1.7.953 3.221 2.197 4.492 3.675a16.294 16.294 0 0 1 2.891 5.33 18.85 18.85 0 0 1 .713 4.438l-1.48-2.364Zm9.375 32.24a38.638 38.638 0 0 0-15.651-5.413 175.34 175.34 0 0 0-5.301-.42.304.304 0 0 0-.105 0 71.512 71.512 0 0 0-10.324-.125c-.545.038-1.073.126-1.609.184-.021-.05-.047-.092-.063-.142l-.046-.042c-.419-.26-.625.02-.667.226a.061.061 0 0 0-.005.023.06.06 0 0 0 .005.023c-1.187.151-2.356.35-3.507.595a5.887 5.887 0 0 1-.344-.838l-.046-.042c-.419-.264-.624 0-.666.218v.055c.084.256.187.506.31.746a50.584 50.584 0 0 0-3.771 1.047c-.314-.088-.453.025-.516.168a44.47 44.47 0 0 0-3.503 1.366 49.095 49.095 0 0 0-3.243 1.542c-.524.285-1.043.561-1.55.867l-.759.461-.042.025-.075.05-.134.084-.256.164-.838.653c-.394.348-.779.688-.733.667-.595.64-.876 1.102.243.343l1.676-.984.059-.038.419.616 1.16 1.722 2.096 2.963a223.639 223.639 0 0 0 4.747 6.193c3.352 4.228 7.036 8.632 10.509 13.174l22.301 31.272s1.32 1.643 1.282 1.563c.558.633 1.006.977.348-.23a31.257 31.257 0 0 0-.976-1.702l-21.97-30.848c-3.524-4.635-7.253-9.106-10.652-13.384a220.266 220.266 0 0 1-4.81-6.248l-2.124-2.98a210.34 210.34 0 0 0-1.283-1.897l-.419-.612.419-.264c.872-.52 1.79-.989 2.716-1.442.093.219.199.432.318.637L127.3 107.58c6.26 8.632 11.548 17.896 15.839 24.626l3.57 5.514s1.291 1.676 1.257 1.597c.549.645.993 1.001.356-.214-.356-.729-.93-1.718-.93-1.718l-3.071-4.722c-4.371-6.793-9.713-16.213-16.058-25.037l-17.628-22.837a5.439 5.439 0 0 1-.306-.616c.587-.277 1.207-.52 1.81-.78.113.134.31.36.62.73l3.311 3.955c1.433 1.73 2.887 3.595 4.383 5.527a323.522 323.522 0 0 1 9.005 12.324c5.933 8.514 11.569 17.18 15.877 23.645l3.557 5.314s.365.477.704.913c0 .784-.054 1.555-.067 2.338-.092 4.086-.096 8.238-.134 12.362-.034-.105-.042-.168-.101-.323-.247-.775-.729-1.823-.729-1.823l-.146-.268-.164-.306-1.198-2.095a106.075 106.075 0 0 0-1.764-2.862c-2.515-3.951-5.791-8.326-9.29-12.99l-10.895-14.75a161.783 161.783 0 0 0-11.607-14.314c-2.041-2.128-4.052-4.14-5.799-6.18a32.726 32.726 0 0 1-2.376-3.093c-.36-.52-.666-1.051-.964-1.58l-.251-.507c-.302-.582-.419-1.005-.444-1.022l-.051-.046c-.419-.235-.599.03-.645.226l-.914.616-.054.038h-.025l-.214.142a17.304 17.304 0 0 0-1.78 1.601c-.038.042-.068.092-.105.134a.36.36 0 0 0-.285.352 21.991 21.991 0 0 0-4.115 7.937 51.45 51.45 0 0 0-1.815 9.511c-.658 6.487-.695 13.036-1.131 19.695a71.77 71.77 0 0 0 1.42 20.302 16.808 16.808 0 0 0 2.096 4.831 6.94 6.94 0 0 0 4.299 3.151c1.034.194 2.1.132 3.105-.18.507.645.922 1.002.385-.147a4.668 4.668 0 0 0 1.676-1.06 10.204 10.204 0 0 0 2.301-4.881c.624-3.512.887-7.079.784-10.644.041-3.556.085-7.133.129-10.731 0-3.587.172-7.212 0-10.849a64.744 64.744 0 0 1 .076-6.49l.742 1.014c.519.67.946 1.047.368-.197a26.387 26.387 0 0 0-.876-1.756l-.121-.184a14.55 14.55 0 0 1 .717-3.076c.301-.813.691-1.798 1.282-1.618.387.112.743.31 1.043.579.282.266.501.593.641.955.493 1.732.715 3.53.658 5.33.029 3.679-.419 7.35-.666 11.092-.44 7.458-.461 14.988-.528 22.552-.038 3.771-.101 7.576-.252 11.377-.151 3.8-.494 7.609-.553 11.452-.197 7.68.088 15.39.067 23.126-.021 7.735-.662 15.504-.419 23.335.059 3.876-.205 7.811.176 11.754a21.841 21.841 0 0 0 1.211 5.841 9.716 9.716 0 0 0 3.596 4.807 9.498 9.498 0 0 0 5.841 1.462 6.53 6.53 0 0 0 5.066-3.222 21.598 21.598 0 0 0 2.133-11.695c-.076-1.01-.092-2.02-.151-3.03.13.138.27.267.419.386.645.549 1.14.838.314-.269a28.659 28.659 0 0 0-.796-1.043 236.511 236.511 0 0 1-.231-4.609c.156.084.172 0 0-.331-.448-11.536-.288-23.118-.192-34.696.52.541.88.771.243-.335-.071-.13-.151-.277-.235-.419 0-1.035.021-2.07.025-3.105l.059-5.938a5.37 5.37 0 0 1 2.254-3.482c.344.273.503.302.252-.13.235-.155.486-.285.75-.385a1.848 1.848 0 0 1 2.011 1.098c.151.328.269.67.352 1.022a.58.58 0 0 0-.075.285.054.054 0 0 0 0 .05l.209.277c.067.36.13.725.172 1.089.205 1.932 0 3.889.05 5.896.135 7.895-.197 15.785-.188 23.679-.021 3.939.159 7.899.276 11.809.118 3.909-.046 7.84.101 11.783.035 3.978.846 7.91 2.388 11.577a6.383 6.383 0 0 0 4.694 3.654 8.376 8.376 0 0 0 5.866-1.144 8.672 8.672 0 0 0 3.025-5.12c.442-1.918.682-3.877.717-5.846.1-3.905-.335-7.785-.503-11.598-.067-3.6-.134-7.157-.197-10.74.054 0 .054-.054 0-.189-.075-4.022-.151-8.07-.222-12.068-.038-2.141-.046-4.253-.075-6.39.368.226.473.172 0-.419 0-1.215-.026-2.422-.042-3.637.532.562.917.838.268-.306a7.361 7.361 0 0 0-.277-.49c-.033-2.824-.075-5.661-.096-8.469.461.482.754.646.172-.419-.055-.104-.118-.213-.18-.322-.055-8.28-.064-16.51.029-24.643.046-3.772.176-7.447.26-11.172.419.449.658.562.125-.465l-.109-.214c.063-2.598.097-5.221.18-7.802.419.419.839.93.839.884.603.599 1.068.91.335-.243a41.514 41.514 0 0 0-1.069-1.634l-.067-.092c0-.419 0-.838.025-1.257.03-1.186.088-2.368.143-3.554.264.193.322.118 0-.419.109-2.304.214-4.609.193-6.901.025-1.793.083-3.579.247-5.343.073-.875.2-1.746.381-2.606a4.388 4.388 0 0 1 .604-1.609c.486.804.974 1.606 1.466 2.405.13.587.272 1.173.352 1.777.272 1.73.419 3.482.528 5.234.214 3.498.272 6.997.281 10.475.084 6.948-.398 13.828.314 20.637.195 1.699.519 3.379.968 5.029a8.425 8.425 0 0 0 2.493 4.517 5.884 5.884 0 0 0 2.313 1.261 5.883 5.883 0 0 0 2.632.122 8.036 8.036 0 0 0 4.408-2.577 16.128 16.128 0 0 0 3.03-9.395c.201-2.87.075-5.707 0-8.506l.1.18s1.085 1.806 1.06 1.718c.469.708.868 1.119.382-.168a31.67 31.67 0 0 0-.734-1.814l-.838-1.542-.616-18.32c-.134-3.084-.146-6.105-.381-9.156a43.637 43.637 0 0 0-1.705-8.858 19.585 19.585 0 0 0-4.275-7.744 30.184 30.184 0 0 0-6.624-5.543Zm-37.667-4.265a85.053 85.053 0 0 0 8.766 10.115c2.82 3.54 5.372 7.295 7.849 11.1 2.476 3.805 4.898 7.66 7.475 11.419 1.257 1.881 2.627 3.725 4.01 5.539l1.107 1.4s.712.762 1.118 1.186c-.054 1.508-.096 3.008-.151 4.521l-2.22-2.971c-4.191-5.753-8.984-14.016-14.83-21.634-2.933-3.797-6.164-7.354-9.219-10.665-1.512-1.676-2.958-3.28-4.286-4.86l-1.89-2.334-1.144-1.513-.222-.314c1.198-.38 2.411-.71 3.637-.99Zm29.868 53.635-3.063-4.567c-4.37-6.537-10.077-15.349-16.099-24.002-3.008-4.328-6.109-8.607-9.135-12.541-1.512-1.97-3-3.864-4.45-5.628l-2.12-2.573-1.357-1.592-.478-.562c.302-.125.591-.268.896-.39.516-.2 1.052-.351 1.576-.531l.348.49 1.043 1.382c.608.755 1.232 1.534 1.877 2.33 1.312 1.576 2.745 3.18 4.241 4.823 3 3.277 6.176 6.743 9.064 10.451 5.761 7.413 10.496 15.563 14.611 21.291a124.52 124.52 0 0 0 2.845 3.88l.47.603c-.088 2.401-.147 4.823-.206 7.245l-.063-.109Zm0 58.204a3.71 3.71 0 0 0-.293-.42c-.473-.662-1.215-1.533-1.215-1.533l-5.632-5.787c-2.229-2.326-4.442-4.668-6.478-7.144l-.771-.964-.05-.025v-4.262c0-.419-.046-.809-.084-1.211a93.74 93.74 0 0 0 6.704 7.425l3.772 3.696 2.686 2.514s.775.637 1.257 1.006c.038 2.221.084 4.467.117 6.7l-.013.005ZM98.856 155.52a8.505 8.505 0 0 1-3.113-3.818 27.842 27.842 0 0 1-2.028-7.869l.628.997c1.257 1.94 2.72 3.738 4.153 5.523l2.132 2.686 1.551 2.095.75.951a5.6 5.6 0 0 1-4.048-.57l-.025.005Zm9.001-19.276c-.08 3.608.042 7.199-.281 10.719a22.747 22.747 0 0 1-.985 5.137 5.889 5.889 0 0 1-3.012 3.772l-.084.025c-.31-.595-.65-1.148-.65-1.148l-.461-.646-1.056-1.403-2.179-2.745c-1.454-1.815-2.933-3.621-4.19-5.552l-.654-1.044-.058-.033c-.382-.134-.528.05-.574.23-.076-.603-.156-1.207-.214-1.806a89.715 89.715 0 0 1-.302-10.169c0-.549.046-1.094.063-1.643l.168.218c2.133 2.778 4.14 5.653 6.134 8.54l2.996 4.337 2.137 3.008s1.35 1.63 1.316 1.546c.578.625 1.035.956.348-.226l-.997-1.676-2.037-2.858-3.046-4.404c-2.028-2.933-4.073-5.866-6.256-8.724l-.721-.922c.1-2.426.235-4.84.36-7.249.151-3.352.24-6.637.503-9.897 0-.197.038-.394.055-.591l.502.909c1.928 3.44 4.036 6.767 6.16 10.057l3.181 4.957 2.149 3.432s1.052 1.491 1.161 1.651c.15.231.339.435.557.603.025 1.198.009 2.422-.008 3.608l-.025-.013Zm3.168-30.916a1.48 1.48 0 0 0-1.53.767 12.103 12.103 0 0 0-1.043 2.695c-.088.351-.109.708-.172 1.064l-.993-1.513-2.627-3.771-2.712-3.7a25.111 25.111 0 0 0-2.933-3.54 2.742 2.742 0 0 1-.59-.919l-.042-.033c-.398-.252-.625-.03-.67.218a.08.08 0 0 0 0 .063 3.5 3.5 0 0 0 .74 1.173 24.07 24.07 0 0 1 2.863 3.423l2.661 3.629 2.572 3.688 1.572 2.376a35.068 35.068 0 0 0-.231 3.427c0 .947.034 1.873.055 2.812a3.98 3.98 0 0 0-.222-.57c-.323-.75-.901-1.752-.901-1.752l-.453-.666-1.161-1.621-2.371-3.189a65.234 65.234 0 0 1-4.45-6.52c-.21-.352-.394-.721-.587-1.081l-.054-.038c-.47-.201-.604.13-.62.331a.06.06 0 0 0-.006.025.06.06 0 0 0 .005.025c.197.373.386.75.604 1.111a64.03 64.03 0 0 0 4.421 6.49l2.329 3.126 1.677 2.347 1.206 1.605c.277.36.512.616.595.599.063 2.665.164 5.309.059 7.961l-.088 6.998a4.38 4.38 0 0 0-.193-.503 25.803 25.803 0 0 0-.838-1.768l-2.04-3.273-3.24-5.028c-2.158-3.352-4.295-6.729-6.243-10.203l-.6-1.085-.058-.038a.417.417 0 0 0-.444 0 81.54 81.54 0 0 1 .536-4.521l.52 1.009a74.524 74.524 0 0 0 5.803 8.649l3.063 4.19 1.463 2.129.57.872 1.156 1.642c.49.683.91 1.081.373-.184a16.931 16.931 0 0 0-.838-1.777l-.457-.708-1.491-2.191-3.122-4.262a74.906 74.906 0 0 1-5.866-8.703l-.566-1.098-.055-.038c-.238-.105-.39-.071-.486 0a31.224 31.224 0 0 1 4.17-12.152l.989-1.257.268.344 1.487 1.819 2.707 3.121c1.877 2.116 3.884 4.312 5.845 6.659.42.494.797 1.022 1.195 1.529a2.559 2.559 0 0 0-.486-.188l-.025-.026Zm.171-1.458c-1.994-2.409-4.031-4.639-5.933-6.78l-2.74-3.147-1.643-2.003c-.155-.2-.268-.343-.377-.49a18.05 18.05 0 0 1 1.676-1.496l.243-.163.055-.034.754-.511c.063.138.104.26.197.42l.163.33c.288.563.608 1.109.96 1.634a29.74 29.74 0 0 0 2.371 3.143c1.735 2.062 3.725 4.056 5.733 6.143a153.457 153.457 0 0 1 11.435 14.004l10.727 14.544c3.449 4.61 6.675 8.905 9.189 12.739 1.258 1.919 2.359 3.708 3.26 5.33l.42.788.138.259 1.056 1.718c.132.223.293.427.477.608 0 1.622-.046 3.235-.054 4.865a33.594 33.594 0 0 0-.96-1.601l-25.636-34.57c-3.83-5.351-7.559-10.836-11.485-15.717l-.026-.013Zm2.452 4.911c-.051-.23-.097-.473-.155-.712 2.74 3.658 5.447 7.542 8.179 11.385l26.005 35.085s1.358 1.618 1.316 1.538c.113.121.209.214.306.306 0 1.676-.046 3.323-.046 5.007l-.021-.029-1.211-1.521-.206-.218-.234-.252-1.157-1.332-1.533-1.898c-4.22-5.334-8.8-13.359-14.721-20.394l-8.179-10.74a226.892 226.892 0 0 0-3.872-4.899l-1.857-2.237-1.198-1.391-.767-.868-.063-.025a.374.374 0 0 0-.179.01.368.368 0 0 0-.156.091c.059-1.354.096-2.711.042-4.069a20.4 20.4 0 0 0-.268-2.824l-.025-.013Zm-.717 26.818.566.616c6.264 6.926 11.561 14.72 17.939 21.634l15.587 16.762s1.53 1.458 1.48 1.382c.641.558 1.135.838.326-.26a32.404 32.404 0 0 0-1.181-1.55l-15.333-16.484c-6.486-6.956-11.841-14.889-18.261-21.987l-.838-.926-.063-.021c-.109 0-.13.042-.197.063.038-2.095.055-4.19.139-6.285.092-3.772.469-7.497.741-11.26.021-.335.03-.666.046-.997l.616.696 1.077 1.257 1.823 2.187c1.257 1.513 2.514 3.13 3.813 4.815l8.062 10.588c5.833 6.935 10.38 14.708 14.507 20.114a58.13 58.13 0 0 0 2.933 3.591l.503.553.201.222.763.721c.394.343.779.674.754.637.126.1.231.172.335.247 0 1.379.021 2.782.03 4.165a40.926 40.926 0 0 0-1.035-1.588s-1.211-1.492-3.026-3.742l-15.713-19.078a547.053 547.053 0 0 1-8.272-10.354l-3.717-4.865-2.761-3.734-.679-.93-.059-.03c-.494-.129-.574.223-.561.42a.052.052 0 0 0-.007.025c0 .008.003.017.007.025l.67.922 2.64 3.57 3.671 4.81a520.772 520.772 0 0 0 8.158 10.233l15.505 18.81 3.494 4.312s1.412 1.567 1.37 1.487c.114.114.214.206.31.29 0 1.537.021 3.084.034 4.609l-.075-.117-2.933-3.952c-4.191-5.502-10.141-12.571-16.175-19.556-3.009-3.507-6.009-7.031-8.762-10.396l-3.922-4.899-2.891-3.771-.692-.922-.059-.029c-.494-.121-.574.231-.557.419a.085.085 0 0 0 0 .05l.683.914c.859 1.123 1.789 2.338 2.766 3.62a231.326 231.326 0 0 0 3.876 4.848c2.719 3.332 5.678 6.814 8.645 10.271 5.941 6.914 11.82 13.828 15.948 19.229l3.23 4.299.172.239s.39.482.746.909c0 2.699 0 5.381.05 8.092l-.645-.838c-1.546-1.932-3.172-3.772-4.844-5.607-3.352-3.633-6.872-7.077-10.325-10.585-7.006-6.876-12.273-15.353-19.447-22.208l-.918-.838-.062-.021a.567.567 0 0 0-.306.054c.042-1.655.096-3.276.125-4.881l-.025.004Zm-.984 36.036v.021c1.202 1.58 2.685 2.833 3.922 4.249a66.45 66.45 0 0 1 3.574 4.484 343.456 343.456 0 0 1 3.352 4.685l2.296 3.256s1.337 1.638 1.308 1.55c.578.624 1.035.955.348-.226-.39-.709-.993-1.676-.993-1.676l-2.175-3.089c-1.119-1.6-2.238-3.209-3.407-4.785a91.362 91.362 0 0 0-3.658-4.609c-1.27-1.5-2.808-2.774-3.96-4.287a8.839 8.839 0 0 1-.591-.905c.037-1.564.092-3.126.168-4.685.113.214.214.419.343.637a57.393 57.393 0 0 0 3.646 4.538c1.165 1.513 2.208 3.13 3.252 4.752 1.043 1.622 2.095 3.256 3.26 4.819a29.01 29.01 0 0 0 1.877 2.25c.44.478.419.419.515.541l.264.259s1.676 1.345 1.639 1.257c.171.105.349.199.532.281l-.088 9.462c0 6.796.033 13.589.264 20.373-.302-.419-.57-.754-.57-.754l-2.703-2.992a203.765 203.765 0 0 1-4.19-4.727 50.343 50.343 0 0 1-7.123-10.304l-.495-1.123-.054-.042c-.256-.134-.42-.083-.512 0 .025-1.705.042-3.406.034-5.108l.277.352 10.991 13.992s1.399 1.58 1.357 1.5c.591.612 1.06.934.344-.231a46.174 46.174 0 0 0-1.052-1.651l-11.041-14.062-.767-.981-.063-.025h-.05c0-1.631-.016-3.26-.046-4.886l.042.059c2.074 2.887 4.316 5.636 6.582 8.36l5.762 6.922 1.375 1.483c.59.604 1.06.931.339-.238-.419-.704-1.069-1.639-1.069-1.639l-5.719-6.872c-2.297-2.761-4.572-5.544-6.663-8.452l-.666-.951a425.929 425.929 0 0 1-.042-5.296l.105.146c2.137 2.975 4.408 5.867 6.704 8.678l5.984 7.124s1.467 1.517 1.42 1.441c.616.583 1.098.889.331-.251-.419-.683-1.118-1.605-1.118-1.605l-5.921-7.031c-2.351-2.867-4.651-5.775-6.814-8.8l-.716-1.014v-1.257c.029-.989.067-1.965.084-2.942l-.025.025Zm0 26.399c.029-.867.029-1.726.041-2.594l.394.893a50.812 50.812 0 0 0 7.099 10.304c1.345 1.588 2.736 3.13 4.127 4.672l2.845 3.147 1.22 1.194c.033.943.029 1.886.075 2.824 0 .478.05.956.08 1.434l-2.376-2.569a232.1 232.1 0 0 1-4.392-4.978 247.625 247.625 0 0 1-8.38-10.292l-.754-.984-.063-.03h-.021c.046-1.047.088-2.053.121-3.063l-.016.042Zm16.006 32.349a15.44 15.44 0 0 1-1.697 5.544 6.476 6.476 0 0 1-.817 1.161c-.033-.046-.033-.059-.071-.105l-1.136-1.576-4.466-5.485a27.35 27.35 0 0 0-6.106-5.837 6.39 6.39 0 0 0-1.173-.578.25.25 0 0 0-.067 0c-.486.147-.335.503-.235.662 0 .029.021.029.038.038.369.138.723.313 1.056.524a26.273 26.273 0 0 1 5.82 5.56l4.501 5.519s1.479 1.525 1.445 1.433l.118.092c-.41.405-.875.75-1.383 1.022a3.038 3.038 0 0 0-.197-.255l-1.232-1.505-3.926-4.19a31.42 31.42 0 0 0-4.957-4.467 4.52 4.52 0 0 0-1.224-.574.281.281 0 0 0-.071 0c-.486.197-.247.549-.155.687a.058.058 0 0 0 .033.034c.362.107.706.27 1.018.482a30.449 30.449 0 0 1 4.74 4.27l3.934 4.19s1.58 1.421 1.534 1.341c.075.054.134.088.201.134a5.403 5.403 0 0 1-1.676.507 9.033 9.033 0 0 1-5.447-1.278 8.84 8.84 0 0 1-3.395-4.458 33.808 33.808 0 0 1-1.382-11.616v-2.074c.251.142.507.276.746.419a32.318 32.318 0 0 1 6.742 6.449l3.063 3.624c.52.6 1.064 1.182 1.613 1.76l.717.721s1.651 1.353 1.609 1.257c.721.474 1.228.679.285-.302l-1.304-1.428-.573-.575a42.192 42.192 0 0 1-1.626-1.751l-3.11-3.671a33.342 33.342 0 0 0-7.01-6.704c-.352-.239-.733-.419-1.098-.65h-.05c0-2.987-.042-5.975 0-8.929.025-2.561.117-5.117.209-7.673l.29.373a253.56 253.56 0 0 0 12.587 15.064l3.009 3.26.209.193c.362 3.095.39 6.219.084 9.319l-.017.042Zm6.797-60.83a3.63 3.63 0 0 0-1.852-2.644 2.694 2.694 0 0 0-2.514.293l-.93-1.303-2.481-3.055-3.771-4.898a65.862 65.862 0 0 0-8.251-9.278 3.258 3.258 0 0 1-.704-.838l-.038-.021c-.352-.167-.645-.113-.662.244a.137.137 0 0 0 0 .075c.225.411.525.776.884 1.077a64.663 64.663 0 0 1 8.046 9.022l3.716 4.818 1.907 2.38.721.868s.754.775 1.169 1.186c-.08.063-.172.113-.243.18a7.056 7.056 0 0 0-1.865 2.543 3.634 3.634 0 0 0-.306 1.609v1.509l-.029 3.013-.025 2.954-.021-.029-5.787-8.138c-2.363-3.302-4.794-6.57-7.459-9.638l-.838-.942-.062-.021c-.499-.084-.545.28-.516.477 0 .009.002.018.005.026a.053.053 0 0 0 .016.02l.838.935c2.594 3.008 4.974 6.197 7.3 9.436l5.866 8.226.67.809v1.927l-.021 2.259c-.083-.088-.125-.147-.264-.277a56.264 56.264 0 0 1-1.32-1.399l-.59-.591a26.402 26.402 0 0 1-1.882-2.209c-1.186-1.537-2.233-3.188-3.298-4.839-1.064-1.651-2.132-3.311-3.352-4.89-1.219-1.58-2.652-2.934-3.662-4.555a7.476 7.476 0 0 1-.562-1.052l-.05-.038a.541.541 0 0 0-.322-.067c.226-4.433.502-8.858.527-13.283.063-3.449.084-6.876.114-10.3l.775.725c6.968 6.667 12.181 14.985 19.087 21.861 3.398 3.457 6.859 6.839 10.148 10.375a104.817 104.817 0 0 1 4.773 5.448l1.148 1.441.633.725c0 1.194.021 2.384.038 3.587a45.71 45.71 0 0 0-.641-.704l-2.556-2.41-3.83-3.742a89.803 89.803 0 0 1-7.149-7.928l-.444-.59c-.03-.172-.038-.294-.059-.411l-.025.042Zm15.504 61.178a14.29 14.29 0 0 1-1.638 5.477 5.355 5.355 0 0 1-3.101 2.489l-.088-.08-1.504-1.232-1.542-1.085a51.219 51.219 0 0 1-1.802-1.362 17.908 17.908 0 0 1-3.189-3.084 2.86 2.86 0 0 1-.507-.972l-.042-.038c-.419-.272-.629-.088-.683.155a.086.086 0 0 0 0 .063c.127.447.339.865.624 1.232a18.4 18.4 0 0 0 3.277 3.185c.587.469 1.186.921 1.794 1.366l1.567 1.102s1.043.616 1.525.884a6.81 6.81 0 0 1-.884.176 5.964 5.964 0 0 1-5.179-1.5 11.24 11.24 0 0 1-2.514-5.108 37.403 37.403 0 0 1-1.006-6.73l.783.557a59.433 59.433 0 0 1 4.966 4.191l4.228 3.934s1.655 1.316 1.605 1.257c.7.487 1.215.709.293-.297l-1.324-1.433-4.215-3.926a60.908 60.908 0 0 0-5.108-4.3l-1.027-.725h-.067a.51.51 0 0 0-.18.051 72.34 72.34 0 0 1-.109-4.295v-.742l.285.39a67.972 67.972 0 0 0 5.996 6.042l5.418 4.907 1.584 1.257c.67.507 1.182.775.302-.285a26.288 26.288 0 0 0-1.312-1.454l-5.38-4.873a69.007 69.007 0 0 1-6.018-6.051 3.538 3.538 0 0 1-.573-.918l-.038-.021a.445.445 0 0 1-.264-.109c0-3.352 0-6.75-.164-10.123-.31-7.962-.025-15.974.059-23.998v-6.625l.247.306c2.028 2.464 4.191 4.777 6.403 7.069l5.678 5.837s1.554 1.421 1.504 1.349c.187.166.394.306.616.419l.063 3.658c-.52-.624-1.295-1.416-1.295-1.416l-5.552-4.999a72.512 72.512 0 0 1-6.172-6.323l-.788-.955-.059-.03c-.502-.1-.565.252-.544.449a.106.106 0 0 0 0 .05l.8.972a74.165 74.165 0 0 0 6.126 6.285l5.603 5.029 1.592 1.257c.105.075.189.13.281.189.037 2.233.067 4.454.109 6.704-.373-.507-.75-.964-.75-.964l-2.251-2.242-3.386-3.239a39.498 39.498 0 0 1-6.038-7.069c-.234-.335-.419-.704-.603-1.056l-.054-.037c-.478-.193-.608.134-.621.335a.07.07 0 0 0-.005.025.07.07 0 0 0 .005.025c.214.369.39.759.633 1.106a39.792 39.792 0 0 0 6.068 7.027l3.327 3.189 1.642 1.605.687.708 1.375 1.295.201 10.92-.813-1.048-.545-.616-1.617-1.906-3.168-3.906a45.902 45.902 0 0 0-7.002-7.295l-1.027-.75h-.062c-.507.034-.461.419-.39.587 0 .029 0 .033.029.042l.989.725a44.8 44.8 0 0 1 6.818 7.043l3.113 3.843 1.597 1.894.683.775s1.311 1.257 1.445 1.333c.025 1.257.046 2.514.072 3.742-.558-.587-1.396-1.362-1.396-1.362l-2.35-1.915a139.372 139.372 0 0 1-3.378-2.883 73.619 73.619 0 0 1-6.285-6.231l-.809-.939-.063-.025c-.503-.092-.557.264-.528.461a.066.066 0 0 0 0 .05l.838.952a74.577 74.577 0 0 0 6.223 6.172 103.06 103.06 0 0 0 3.352 2.858l2.455 2.003s1.723 1.219 1.677 1.152c.104.067.192.113.285.163.041 3.42.108 6.814.171 10.22l-.004.034Zm-.214-109.899-.507-.725-.653-.838a106.405 106.405 0 0 1-4.09-5.568c-2.627-3.772-5.083-7.706-7.606-11.587-2.522-3.88-5.116-7.727-8.003-11.368a102.518 102.518 0 0 1-8.716-10.006 38.804 38.804 0 0 1 3.424-.55c.075.16.134.332.209.491a58.006 58.006 0 0 0 7.392 8.716 107.802 107.802 0 0 1 6.784 9.089c2.124 3.134 4.153 6.344 6.231 9.524l3.172 4.735.914 1.299s1.332 1.643 1.299 1.555c.113.13.217.226.314.322-.042 1.584-.105 3.26-.159 4.878l-.005.033Zm.7-13.287c-.172.922-.251 1.844-.335 2.766-.126 1.676-.164 3.352-.18 5.028l-.968-1.676-.578-.813a200.476 200.476 0 0 1-3.231-4.79l-6.336-9.7a109.537 109.537 0 0 0-6.922-9.315 62.685 62.685 0 0 1-7.425-8.737c-.038-.084-.067-.167-.105-.247a45.89 45.89 0 0 1 4.517-.277h.788c.075.306.181.603.314.889 1.63 2.514 3.352 4.718 4.949 7.123a397.111 397.111 0 0 1 4.701 7.224l4.639 7.287 2.401 3.6.767 1.106s1.32 1.651 1.286 1.567c.57.633 1.018.972.352-.222l-.968-1.676-.532-.759-2.439-3.641-4.71-7.404c-1.567-2.472-3.142-4.945-4.789-7.37-1.647-2.427-3.465-4.828-4.987-7.17a4.33 4.33 0 0 1-.188-.533 92.65 92.65 0 0 1 5.355.222c.112.253.241.498.386.734l.18.293c.306.47.645.918.989 1.362.708.867 1.324 1.797 2.002 2.786a193.299 193.299 0 0 1 4.04 6.24l8.083 13.367a5.356 5.356 0 0 0-1.052 2.703l-.004.033Zm9.005 47.949c-2.799-1.764-3.176-5.56-3.771-8.799a19.432 19.432 0 0 0 2.548 4.324 52.261 52.261 0 0 0 1.676 2.095l1.428 1.647s1.492 1.492 1.442 1.416l.084.072a4.956 4.956 0 0 1-3.403-.788l-.004.033Zm10.56-12.001a19.201 19.201 0 0 1-2.246 9.504 7.793 7.793 0 0 1-3.726 2.984 5.374 5.374 0 0 1-.762.18c-.055-.084-.067-.126-.143-.235a29.599 29.599 0 0 0-1.148-1.584l-1.391-1.605a62.816 62.816 0 0 1-1.706-2.095 18.002 18.002 0 0 1-2.694-4.609 7.339 7.339 0 0 1-.285-1.14l-.037-.05a.486.486 0 0 0-.419-.147c-.13-1.441-.202-2.9-.231-4.366.038.079.071.163.113.243a42.359 42.359 0 0 0 3.771 5.866c.696.93 1.414 1.841 2.154 2.732l1.739 1.991s1.546 1.454 1.509 1.366c.67.532 1.169.783.31-.277l-1.203-1.525-.523-.583-1.144-1.32a64.255 64.255 0 0 1-2.171-2.74 41.784 41.784 0 0 1-3.771-5.866 14.498 14.498 0 0 1-.512-1.107l-.05-.042a.59.59 0 0 0-.243-.071v-2.933c0-1.119 0-2.242.025-3.352.096.386.221.764.373 1.131a27.87 27.87 0 0 0 4.899 7.392l5.028 5.636 1.404 1.441c.586.6 1.064.931.339-.243-.419-.7-1.119-1.617-1.119-1.617l-5.003-5.594a27.561 27.561 0 0 1-4.865-7.287 9.222 9.222 0 0 1-.377-1.144l-.046-.046c-.377-.26-.574-.063-.65.121.023-2.109.035-4.222.038-6.34l.113.235a65.805 65.805 0 0 0 6.286 9.357l3.406 4.454 1.639 2.263.612.884s1.093 1.454 1.206 1.609c.516.667.947 1.052.365-.197-.265-.6-.565-1.185-.897-1.751l-.482-.7-1.676-2.326-3.465-4.542a65.61 65.61 0 0 1-6.336-9.399l-.536-1.106-.055-.038a.55.55 0 0 0-.192-.05c0-3.386-.076-6.792-.29-10.216-.125-1.642-.259-3.285-.515-4.928 4.811 7.782 9.638 15.157 13.057 21.107l2.363 4.24c.122 2.766.193 5.582.164 8.402l-.004.033Zm-.151-10.056-1.174-2.095c-3.771-6.705-9.327-15.085-14.666-23.805-.083-.348-.125-.7-.238-1.048a4.66 4.66 0 0 0-.604-1.332l-.214-.348a1.18 1.18 0 0 0-.49-.235.664.664 0 0 0-.259 0l-7.962-13.153a195.799 195.799 0 0 0-4.098-6.357c-.675-.98-1.329-1.986-2.045-2.879-.348-.448-.683-.88-.985-1.32l-.272-.418c-.071-.122-.101-.198-.159-.302.142 0 .28 0 .419.025 1.001.08 2.003.163 3.004.26a.573.573 0 0 0-.025.159.065.065 0 0 0 0 .054l.654 1.077c2.468 3.876 5.338 7.43 7.882 11.192l7.437 11.478 12.11 18.73s1.257 1.676 1.215 1.618c.059.071.109.121.164.188.105 2.774.218 5.619.31 8.502l-.004.009Zm-.335-9.638v.247c-.319-.632-.675-1.257-.675-1.257l-11.905-18.437-7.567-11.683c-2.598-3.867-5.523-7.48-7.995-11.372l-.495-.809c1.521.153 3.03.405 4.517.755a.575.575 0 0 0-.05.234.055.055 0 0 0-.005.025c0 .01.001.018.005.026l.779.963a167.619 167.619 0 0 1 11.616 17.407c1.831 2.979 3.687 5.954 5.682 8.845a87.382 87.382 0 0 0 3.101 4.258l.93 1.19s1.454 1.542 1.408 1.466c.13.126.247.227.356.319.117 2.56.209 5.158.302 7.79l-.004.033Zm-.336-9.604c0 .419.03.838.042 1.219-.419-.687-1.098-1.609-1.098-1.609l-.599-.767a82.357 82.357 0 0 1-3.151-4.274c-2.028-2.908-3.914-5.92-5.778-8.946a171.257 171.257 0 0 0-11.859-17.792l-.419-.511a37.198 37.198 0 0 1 7.367 2.686.524.524 0 0 0-.046.344c0 .018.007.037.02.05l.839.897a56.565 56.565 0 0 1 7.161 10.945l3.121 5.824a62.803 62.803 0 0 0 1.677 2.87l.616 1.002s1.257 1.714 1.232 1.622c.381.448.678.712.641.46.121 1.932.159 3.931.239 5.938l-.005.042Zm-.616-9.374c.181 1.098.281 2.209.361 3.323a5.122 5.122 0 0 0-.281-.612l-.905-1.726-.461-.733a103.107 103.107 0 0 1-1.676-2.892l-3.172-5.908a57.726 57.726 0 0 0-7.371-11.314 31.625 31.625 0 0 1 5.762 3.985 21.374 21.374 0 0 1 5.363 7.04 35.004 35.004 0 0 1 2.384 8.804l-.004.033Z"/><path fill="#37A75F" d="M120.131 47.083c-.473-.193-.599.147-.611.344v.05l.607 1.098a127.088 127.088 0 0 0 8.557 12.835l4.584 6.18 2.988 4.132 1.257 1.576c.549.645.997 1.001.356-.214-.352-.73-.952-1.714-.952-1.714l-2.824-3.91-4.659-6.285a128.875 128.875 0 0 1-8.662-12.99l-.599-1.085-.042-.017Zm25.436 17.26a29.965 29.965 0 0 0-.775-1.798l-2.033-3.603-3.318-5.636c-2.28-3.709-4.584-7.446-7.124-10.941a3.77 3.77 0 0 1-.486-.985l-.033-.03c-.176-.041-.277-.175-.399-.204-.121-.03-.272.159-.301.297a.097.097 0 0 0 0 .067c.123.45.323.875.591 1.257 2.539 3.47 4.772 7.094 7.018 10.74l3.26 5.523 2.146 3.771s1.127 1.78 1.098 1.701c.456.717.875 1.115.356-.159Zm-41.921 86.01-1.676-2.657-2.552-3.876c-1.7-2.581-3.398-5.158-4.915-7.836l-.6-1.085-.054-.038c-.473-.193-.599.147-.612.344a.062.062 0 0 0 0 .05l.604 1.098c1.509 2.665 3.185 5.213 4.86 7.752l2.515 3.805 1.747 2.753 1.157 1.651c.499.683.917 1.077.368-.185-.305-.754-.842-1.776-.842-1.776Zm2.025-9.801-1.751-3.105-2.749-4.718a104.32 104.32 0 0 0-6.068-9.093l-.767-.989-.063-.029c-.494-.113-.561.247-.544.444a.066.066 0 0 0 0 .05l.758.981a104.296 104.296 0 0 1 5.934 8.867l2.698 4.609 1.836 3.256s1.139 1.776 1.11 1.676c.49.691.901 1.085.373-.18a24.22 24.22 0 0 0-.767-1.769Zm-10.933-22.284a220.86 220.86 0 0 0 5.217 8.426l4.639 7.057s1.257 1.676 1.227 1.609c.537.658.977 1.022.361-.206-.344-.737-.91-1.734-.91-1.734l-4.609-6.994c-1.823-2.812-3.608-5.644-5.288-8.536l-.616-1.081-.059-.033c-.473-.185-.595.159-.603.356a.062.062 0 0 0 0 .05l.641 1.086Zm61.682.653-.037-.05c-.382-.314-.62-.084-.692.13a.08.08 0 0 0-.005.027 5.338 5.338 0 0 0 .424 1.284l12.123 17.817s1.286 1.677 1.257 1.589c.545.645.989 1.001.352-.218a33.608 33.608 0 0 0-.934-1.723l-12.106-17.775a4.828 4.828 0 0 1-.382-1.081Zm-43.066 35.828a.446.446 0 0 0-.289.042c-.021 0 .034.029-.05 0-.26.163-.042.167-.101.159h.026l.041-.034a.205.205 0 0 0 .059-.075v.034l-.163.155h-.038c-.021 0-.025 0-.029.029v.092a.675.675 0 0 0 .005.193.054.054 0 0 0 .016.021l.905.871a35.603 35.603 0 0 1 6.788 7.895l2.878 4.408 1.467 2.2.608.867s1.349 1.639 1.316 1.547c.59.62 1.051.938.347-.231-.561-.943-1.001-1.676-1.001-1.676l-1.961-2.9-2.933-4.492a36.73 36.73 0 0 0-6.998-8.171l-.889-.859-.004-.075Zm12.3 68.041-6.026-5.912a46.71 46.71 0 0 1-6.432-7.735c-.226-.34-.419-.709-.612-1.061l-.054-.037c-.478-.189-.604.142-.616.343a.058.058 0 0 0 0 .051c.214.364.419.746.637 1.102a46.93 46.93 0 0 0 6.415 7.743l6.084 5.972 1.521 1.324c.65.54 1.149.838.315-.269-.47-.662-1.232-1.521-1.232-1.521Zm-.231 3.491-12.386-12.479a6.226 6.226 0 0 1-.713-.913l-.046-.021a2.003 2.003 0 0 0-.457-.046c-.126.042-.176.247-.167.364a.072.072 0 0 0-.008.032c0 .011.003.021.008.031.234.379.507.732.813 1.056l12.357 12.449s1.575 1.4 1.521 1.325c.658.536 1.156.8.306-.281a28.338 28.338 0 0 0-1.228-1.517Zm10.724-30.418 11.105 11.649s1.542 1.438 1.495 1.362c.642.549 1.136.838.311-.276-.474-.662-1.207-1.542-1.207-1.542l-11.172-11.733-.863-.901-.063-.021c-.498-.059-.528.31-.486.503 0 .033 0 .038.021.05l.859.909Zm-.093 16.842a55.526 55.526 0 0 0 5.029 4.877l4.68 3.939s1.702 1.257 1.643 1.178c.7.473 1.228.695.285-.302a29.636 29.636 0 0 0-1.374-1.391l-4.652-3.914a54.272 54.272 0 0 1-5.028-4.882 19.15 19.15 0 0 1-.792-.942l-.059-.026c-.498-.1-.569.248-.544.445v.05c.264.331.532.658.812.968Zm11.928 13.597-2.263-1.869a92.558 92.558 0 0 1-3.181-2.833 80.773 80.773 0 0 1-5.908-6.126l-.8-.947-.063-.025c-.499-.096-.557.26-.532.457a.054.054 0 0 0 0 .05l.813.955a80.222 80.222 0 0 0 5.866 6.085 87.826 87.826 0 0 0 3.147 2.82l2.367 1.961s1.735 1.207 1.677 1.135c.725.419 1.257.637.272-.314l-1.395-1.349Z"/></svg>